<?xml version="1.0" standalone="no"?>
<!DOCTYPE svg PUBLIC "-//W3C//DTD SVG 20010904//EN"
 "http://www.w3.org/TR/2001/REC-SVG-20010904/DTD/svg10.dtd">
<svg version="1.0" xmlns="http://www.w3.org/2000/svg"
 width="200.000000pt" height="200.000000pt" viewBox="0 0 200.000000 200.000000"
 preserveAspectRatio="xMidYMid meet">

<g transform="translate(0.000000,200.000000) scale(0.100000,-0.100000)"
fill="#000000" stroke="none">
<path d="M0 1000 l0 -1000 1000 0 1000 0 0 1000 0 1000 -1000 0 -1000 0 0
-1000z m1143 598 c116 -54 219 -186 232 -298 5 -43 5 -43 -13 15 -40 131 -106
211 -220 267 -61 30 -74 33 -162 33 -88 0 -101 -3 -162 -33 -89 -43 -195 -151
-187 -189 1 -4 -8 -30 -21 -57 -19 -42 -22 -61 -18 -126 9 -146 92 -270 226
-333 61 -29 76 -32 162 -32 83 0 103 4 154 28 32 15 61 25 64 22 3 -2 -22 -17
-54 -32 -53 -25 -70 -28 -164 -28 -97 0 -110 2 -170 31 -82 39 -150 106 -192
191 -27 55 -33 79 -36 152 -2 56 1 97 9 116 7 17 13 37 14 45 6 52 100 164
173 207 71 42 119 53 217 50 72 -2 101 -8 148 -29z m-40 -64 c62 -21 137 -90
166 -152 36 -77 30 -82 -93 -82 -59 0 -108 4 -111 10 -4 6 13 10 44 10 28 0
51 5 51 10 0 6 -16 10 -35 10 -19 0 -35 5 -35 10 0 6 5 10 10 10 6 0 10 5 10
10 0 6 -22 10 -50 10 -27 0 -50 -4 -50 -10 0 -5 7 -10 15 -10 8 0 15 -4 15
-10 0 -5 -16 -10 -36 -10 -21 0 -33 -4 -29 -10 3 -5 15 -10 26 -10 10 0 19 -4
19 -10 0 -5 -13 -10 -29 -10 -21 0 -32 6 -36 20 -8 26 1 40 26 40 16 0 19 5
14 20 -5 16 -2 20 14 20 12 0 21 5 21 10 0 6 -16 10 -36 10 -21 0 -33 4 -29
10 3 6 38 10 76 10 76 0 90 19 16 21 -34 2 -36 3 -12 6 49 7 54 23 8 23 -23 0
-45 5 -48 10 -3 6 3 10 14 10 30 0 36 19 9 29 l-23 10 26 0 c14 1 46 -6 72
-15z m-268 -32 c-20 -18 -80 -19 -69 0 3 5 14 6 25 3 10 -4 27 -2 36 4 27 15
29 13 8 -7z m45 8 c0 -5 -4 -10 -10 -10 -5 0 -10 5 -10 10 0 6 5 10 10 10 6 0
10 -4 10 -10z m50 -14 c14 -18 14 -19 -8 -7 -12 7 -20 17 -16 22 3 6 7 9 8 7
1 -2 8 -12 16 -22z m-193 -31 c-7 -14 -16 -25 -20 -25 -8 0 -2 14 16 38 15 19
16 14 4 -13z m93 -58 c0 -9 -11 -12 -37 -9 l-38 4 23 -24 c17 -19 19 -25 7
-25 -8 0 -13 3 -10 5 13 14 -32 42 -69 44 -23 1 -6 4 39 8 44 3 81 7 83 8 1 1
2 -4 2 -11z m65 -57 c-4 -6 -1 -19 7 -28 12 -15 11 -16 -4 -3 -20 15 -24 41
-7 41 5 0 7 -5 4 -10z m-170 -10 c-3 -5 -12 -10 -18 -10 -7 0 -6 4 3 10 19 12
23 12 15 0z m133 3 c-10 -2 -26 -2 -35 0 -10 3 -2 5 17 5 19 0 27 -2 18 -5z
m472 -9 c11 -12 11 -15 -1 -12 -9 2 -15 -7 -17 -24 -4 -33 15 -71 30 -62 7 4
8 3 4 -4 -4 -7 -2 -12 4 -12 6 0 8 -5 5 -11 -4 -5 -9 -25 -12 -42 -2 -18 -11
-42 -19 -54 -7 -12 -9 -23 -4 -25 5 -2 2 -12 -5 -22 -12 -16 -17 -17 -30 -6
-13 10 -15 9 -15 -8 0 -12 4 -23 10 -27 5 -3 -10 -24 -33 -47 -23 -22 -41 -44
-40 -47 1 -4 -7 -7 -17 -7 -10 0 -16 6 -13 13 7 18 -7 16 -53 -6 -42 -21 -54
-19 -54 7 0 38 -62 145 -114 198 -65 64 -172 120 -252 130 -30 3 -54 10 -54
15 0 9 131 5 147 -4 4 -2 26 -10 48 -17 111 -35 244 -133 296 -217 15 -25 24
-31 30 -22 4 7 3 22 -3 32 -6 12 -6 22 -1 26 5 3 27 17 49 31 21 13 44 31 50
38 9 12 14 10 32 -13 14 -17 22 -22 22 -13 0 8 -9 23 -20 33 -20 18 -22 18
-92 -19 l-71 -37 -30 29 -30 30 40 21 c22 11 62 25 89 32 27 7 57 16 66 20 11
6 19 5 24 -3 4 -7 3 -8 -4 -4 -19 11 -14 -35 5 -56 22 -24 35 -23 32 5 -2 12
-1 27 3 32 3 6 -3 21 -14 34 -19 24 -21 24 -81 12 -33 -7 -89 -25 -122 -40
-60 -28 -63 -28 -86 -10 -13 10 -22 20 -19 22 15 15 117 40 197 50 l91 10 7
34 c7 38 8 39 25 17z m-475 -38 c0 -15 -4 -21 -9 -16 -5 5 -6 16 -3 24 9 22
12 20 12 -8z m-228 -18 c-3 -8 -6 -5 -6 6 -1 11 2 17 5 13 3 -3 4 -12 1 -19z
m378 -8 c-3 -5 -31 -10 -61 -10 -30 0 -54 5 -54 10 0 6 27 10 61 10 37 0 58
-4 54 -10z m65 6 c0 -9 -40 -13 -46 -5 -3 5 6 9 20 9 14 0 26 -2 26 -4z m-243
-81 c107 -53 192 -157 217 -267 6 -28 6 -28 -44 -28 -41 0 -50 3 -50 18 0 36
-61 144 -108 190 -47 45 -144 102 -176 102 -9 0 -16 7 -16 16 0 27 93 10 177
-31z m573 0 c-7 -8 -16 -15 -21 -15 -5 0 -1 8 9 18 20 22 31 19 12 -3z m-773
-27 c-3 -8 -6 -5 -6 6 -1 11 2 17 5 13 3 -3 4 -12 1 -19z m100 -12 c68 -32
138 -103 170 -172 36 -80 31 -88 -41 -59 -95 39 -167 120 -194 218 -13 45 -7
46 65 13z m670 8 c-3 -3 -12 -4 -19 -1 -8 3 -5 6 6 6 11 1 17 -2 13 -5z m-30
-70 c-3 -3 -12 -4 -19 -1 -8 3 -5 6 6 6 11 1 17 -2 13 -5z m9 -32 c-17 -16
-18 -16 -5 5 7 12 15 20 18 17 3 -2 -3 -12 -13 -22z m-26 -52 c0 -5 -2 -10 -4
-10 -3 0 -8 5 -11 10 -3 6 -1 10 4 10 6 0 11 -4 11 -10z m-620 -35 c13 -14 21
-25 18 -25 -2 0 -15 11 -28 25 -13 14 -21 25 -18 25 2 0 15 -11 28 -25z m577
-1 c-3 -3 -12 -4 -19 -1 -8 3 -5 6 6 6 11 1 17 -2 13 -5z m-17 -24 c8 -5 11
-10 5 -10 -5 0 -17 5 -25 10 -8 5 -10 10 -5 10 6 0 17 -5 25 -10z m-37 -37
c-7 -2 -19 -2 -25 0 -7 3 -2 5 12 5 14 0 19 -2 13 -5z m-485 -160 c-2 -10 -10
-18 -18 -18 -8 0 -16 8 -18 18 -2 12 3 17 18 17 15 0 20 -5 18 -17z m202 -23
c0 -11 7 -23 15 -26 8 -4 15 -10 15 -15 0 -5 -7 -9 -15 -9 -12 0 -15 -14 -15
-65 0 -49 4 -67 15 -71 8 -4 15 -10 15 -15 0 -13 -36 -11 -48 4 -12 14 -20
162 -9 173 4 4 7 16 7 26 0 10 5 18 10 18 6 0 10 -9 10 -20z m150 7 c0 -7 -13
-48 -30 -90 -16 -43 -30 -82 -30 -87 0 -5 12 -10 27 -12 14 -2 28 -9 31 -15 2
-9 -11 -13 -47 -13 -61 0 -62 1 -21 107 17 42 30 81 30 85 0 5 -11 8 -25 8
-16 0 -25 6 -25 15 0 11 12 15 45 15 30 0 45 -4 45 -13z m-432 -129 c2 -74 0
-88 -13 -88 -12 0 -15 15 -15 80 0 64 -3 80 -15 80 -12 0 -15 -16 -15 -80 0
-63 -3 -80 -15 -80 -11 0 -15 18 -17 77 -3 65 -6 78 -20 81 -16 3 -18 -6 -18
-77 0 -65 -3 -81 -15 -81 -12 0 -15 16 -15 88 l0 89 78 -1 77 -1 3 -87z m72 2
c0 -73 -3 -90 -15 -90 -12 0 -15 17 -15 90 0 73 3 90 15 90 12 0 15 -17 15
-90z m138 -2 c2 -74 0 -88 -13 -88 -12 0 -15 15 -15 81 0 71 -2 80 -17 77 -15
-3 -18 -16 -21 -81 -2 -59 -6 -77 -17 -77 -12 0 -15 18 -15 89 l0 90 48 -2 47
-2 3 -87z m332 71 c20 -36 9 -64 -27 -67 -29 -3 -33 -7 -33 -32 0 -36 19 -49
36 -25 18 24 34 15 23 -12 -6 -17 -16 -23 -38 -23 -38 0 -51 23 -51 90 0 28 5
60 10 71 15 26 66 26 80 -2z m118 -6 c2 -16 -2 -23 -12 -23 -9 0 -16 7 -16 15
0 8 -4 15 -10 15 -6 0 -10 -33 -10 -80 0 -64 -3 -80 -15 -80 -12 0 -15 17 -15
89 l0 89 38 -1 c30 -2 38 -6 40 -24z m112 8 c15 -30 12 -113 -6 -139 -19 -27
-60 -29 -74 -3 -5 11 -10 43 -10 71 0 67 13 90 50 90 19 0 33 -7 40 -19z
m-1027 -239 c17 22 17 22 2 -9 -8 -18 -15 -40 -16 -50 -1 -10 -5 -4 -9 12 -4
17 -11 39 -14 50 -6 15 -4 14 7 -3 l14 -24 16 24z m95 -7 c-3 -3 -9 2 -12 12
-6 14 -5 15 5 6 7 -7 10 -15 7 -18z m44 -27 c2 -21 0 -38 -4 -38 -4 0 -8 21
-7 48 1 52 6 48 11 -10z m85 -15 c-2 -16 -4 -5 -4 22 0 28 2 40 4 28 2 -13 2
-35 0 -50z m53 57 c0 -5 -2 -10 -4 -10 -3 0 -8 5 -11 10 -3 6 -1 10 4 10 6 0
11 -4 11 -10z m64 -5 c-4 -10 3 -18 20 -25 25 -9 38 -50 17 -50 -5 0 -7 9 -4
20 4 13 0 20 -10 20 -19 0 -41 26 -32 40 9 15 15 12 9 -5z m78 -37 c2 -21 0
-38 -4 -38 -4 0 -8 21 -7 48 1 52 6 48 11 -10z m163 8 c0 -24 -3 -42 -7 -39
-14 8 -8 83 6 83 1 0 1 -20 1 -44z m103 30 c-7 -8 -15 -12 -17 -11 -5 6 10 25
20 25 5 0 4 -6 -3 -14z m78 2 c4 -6 3 -8 -4 -4 -7 4 -12 -9 -15 -36 l-4 -43
-1 48 c-2 45 9 60 24 35z m44 -33 c0 -25 -3 -45 -8 -45 -4 0 -6 20 -4 45 2 25
6 45 8 45 2 0 4 -20 4 -45z m95 5 c17 0 25 7 28 23 2 12 4 0 4 -28 0 -27 -2
-40 -4 -27 -3 15 -11 22 -28 22 -17 0 -25 -7 -28 -22 -2 -13 -4 0 -4 27 0 28
2 40 4 28 3 -16 11 -23 28 -23z m148 -1 c-3 -58 -13 -62 -13 -6 0 26 4 47 8
47 4 0 7 -19 5 -41z m50 3 c-7 -12 -8 -25 -1 -38 9 -19 9 -19 -6 0 -12 14 -13
23 -5 33 6 7 8 21 5 30 -6 15 -5 16 6 5 9 -9 10 -17 1 -30z m60 -3 l22 -2 -22
-4 c-13 -2 -24 -13 -26 -26 -2 -12 -4 1 -4 28 0 28 2 40 4 28 3 -15 12 -23 26
-24z m-1126 -16 c-3 -10 -5 -4 -5 12 0 17 2 24 5 18 2 -7 2 -21 0 -30z m509
-19 c-3 -8 -11 -14 -18 -13 -10 0 -10 2 0 6 6 2 13 19 13 36 1 25 3 27 6 9 3
-13 2 -30 -1 -38z m161 34 c-3 -8 -6 -5 -6 6 -1 11 2 17 5 13 3 -3 4 -12 1
-19z m-430 -18 c0 -25 -2 -27 -12 -13 -10 14 -5 36 11 43 0 0 1 -13 1 -30z
m513 -5 c0 -5 -5 -3 -10 5 -5 8 -10 20 -10 25 0 6 5 3 10 -5 5 -8 10 -19 10
-25z m-94 5 c13 0 24 -4 24 -8 0 -5 -13 -7 -30 -4 -20 3 -30 10 -29 21 0 10 2
11 6 4 2 -7 16 -13 29 -13z m307 13 c-7 -2 -19 -2 -25 0 -7 3 -2 5 12 5 14 0
19 -2 13 -5z m-363 -23 c0 -11 -4 -20 -9 -20 -5 0 -7 9 -4 20 3 11 7 20 9 20
2 0 4 -9 4 -20z m-450 -10 c0 -5 -5 -10 -11 -10 -5 0 -7 5 -4 10 3 6 8 10 11
10 2 0 4 -4 4 -10z"/>
<path d="M1265 1131 c-7 -22 10 -61 25 -61 15 0 12 56 -4 69 -11 10 -16 8 -21
-8z"/>
<path d="M1224 1065 c-4 -9 -2 -26 3 -38 8 -16 7 -26 -3 -35 -12 -11 -14 -9
-14 7 0 25 -20 38 -31 20 -12 -19 -11 -41 2 -59 8 -11 12 -12 16 -2 2 6 8 10
13 7 15 -9 52 53 48 82 -4 31 -25 42 -34 18z"/>
<path d="M1177 674 c-16 -16 -7 -44 14 -44 15 0 20 5 17 22 -3 22 -19 33 -31
22z"/>
<path d="M1407 674 c-11 -12 -8 -122 4 -130 19 -11 29 18 27 75 -3 50 -15 71
-31 55z"/>
</g>
</svg>
