<svg width="255" height="65" viewBox="0 0 255 65" fill="none" xmlns="http://www.w3.org/2000/svg">
<path d="M54.705 5.22846C54.6848 5.32965 54.6645 5.43083 54.6375 5.53202C53.2074 11.6711 47.075 15.4827 40.936 14.0525C34.8104 12.6223 30.9988 6.51024 32.4088 0.37793L54.705 5.22846Z" fill="white"/>
<path d="M22.7615 10.7872C20.6027 16.7104 14.0589 19.7596 8.13573 17.6009C6.48966 17.0004 5.0662 16.0627 3.9126 14.8956L21.1357 0C23.3957 2.98183 24.1377 7.01605 22.7615 10.7872Z" fill="#57E964"/>
<path d="M8.70261 39.4925C6.62477 42.4811 3.37311 44.1744 0 44.37L1.55837 21.7837C3.05603 22.0805 4.5132 22.6809 5.84895 23.6052C11.0233 27.2077 12.2983 34.3182 8.70261 39.4925Z" fill="white"/>
<path d="M26.4451 62.5847L6.16602 52.5261C9.33673 47.743 15.6714 46.016 20.893 48.701C26.0066 51.3253 28.2869 57.2956 26.4451 62.5847Z" fill="#57E964"/>
<path d="M55.022 48.458L38.3319 64.0215C35.6671 61.1004 34.6012 56.8705 35.9032 52.8363C37.8326 46.8389 44.2685 43.54 50.2659 45.4762C52.1414 46.0766 53.7537 47.1222 55.022 48.458Z" fill="white"/>
<path d="M60.0412 40.9428C57.7947 41.1115 55.474 40.6055 53.3827 39.3642C47.9722 36.1395 46.1979 29.1369 49.4159 23.7197C51.6894 19.9013 55.8518 17.891 60.0075 18.1743L60.0412 40.9428Z" fill="#57E964"/>
<path d="M31.0191 23.47C33.2589 23.4633 35.2017 24.2391 36.8815 25.6963C38.6018 27.2007 39.6745 29.0829 40.0927 31.3361C40.1737 31.7881 40.2209 32.2536 40.2412 32.7123C40.2682 33.3397 40.2951 33.9739 40.2412 34.6013C40.0523 36.9287 39.29 39.0268 37.6169 40.7133C36.4296 41.9141 34.9791 42.6225 33.3263 42.9463C32.5302 43.1015 31.7342 43.2229 30.9247 43.2296C30.6076 43.2296 30.2838 43.1959 29.9734 43.1285C29.2718 42.9733 28.5702 42.8182 27.8889 42.5955C26.4991 42.1503 25.413 41.28 24.5697 40.0927C24.3673 39.8026 24.1042 39.5597 23.8816 39.2831C22.9236 38.1093 22.2153 36.8073 21.8375 35.3299C21.6149 34.4663 21.5339 33.5893 21.5947 32.6921C21.6486 31.896 21.7566 31.1135 21.9724 30.3444C22.303 29.1706 22.7955 28.0709 23.5241 27.0792C24.7316 25.4399 26.3305 24.3673 28.2869 23.8276C29.1774 23.5779 30.0949 23.4633 31.0191 23.47ZM29.1369 28.2598C29.1369 28.2733 29.1437 28.2801 29.1437 28.2935C29.1099 28.3138 29.0762 28.3408 29.0357 28.361C28.5163 28.6646 28.044 29.0154 27.619 29.4404C27.2007 29.8587 26.8095 30.2972 26.3912 30.7155C25.0554 32.0579 24.4415 33.6973 24.3471 35.5592C24.3201 36.1192 24.3808 36.6724 24.4753 37.2255C24.5495 37.6303 24.6642 38.0081 24.9408 38.3252C25.1229 38.5343 25.2781 38.7569 25.4602 38.9661C26.3237 39.978 27.3424 40.7875 28.5567 41.3542C28.7254 41.4352 28.9008 41.5364 29.0762 41.5364C29.5417 41.5431 30.0139 41.5094 30.4794 41.4756C30.8977 41.4419 31.3024 41.3205 31.7275 41.3407C33.2116 41.4149 34.5204 40.9495 35.647 39.978C35.8629 39.7891 36.0788 39.5732 36.2272 39.3236C36.8006 38.3656 37.0974 37.32 37.1649 36.2069C37.1986 35.7279 37.1986 35.2422 37.2121 34.7564C37.2526 33.7512 37.1312 32.7663 36.8343 31.8016C36.7534 31.5317 36.6589 31.2686 36.5645 30.9988C37.3336 32.0444 37.7653 33.2183 37.9475 34.5001C37.9542 34.2572 37.9677 34.0211 37.9542 33.785C37.853 32.1187 37.2054 30.702 36.018 29.5281C35.7887 29.3055 35.5458 29.1031 35.3164 28.8737C34.9521 28.5027 34.6216 28.0979 34.237 27.7539C33.3061 26.9376 32.2334 26.3911 30.9989 26.1955C30.8437 26.1685 30.6885 26.1483 30.5334 26.128C30.5604 26.101 30.5873 26.0875 30.6143 26.0875C31.5318 25.9256 32.4561 25.9121 33.3803 26.0471C33.6366 26.0875 33.9132 26.1213 34.1359 26.2427C35.1613 26.8026 36.0315 27.5447 36.7466 28.4757C37.7856 29.8317 38.3252 31.3833 38.4264 33.0766C38.4939 34.1155 38.3927 35.1477 38.1229 36.1596C37.9947 36.6521 37.88 37.1513 37.7653 37.6506C37.8193 37.6236 37.8463 37.5831 37.8732 37.5426C38.0486 37.2053 38.2443 36.8747 38.4062 36.5307C38.8717 35.5052 39.128 34.4326 39.1685 33.306C39.1955 32.5234 39.1415 31.7544 38.9122 31.0055C38.5344 29.771 37.8935 28.6781 37.0637 27.6931C36.9423 27.5515 36.8141 27.4098 36.6724 27.2479C36.7196 27.2479 36.7399 27.2479 36.7669 27.2479C36.7736 27.2411 36.7804 27.2276 36.7871 27.2209C36.6319 27.0725 36.4768 26.9308 36.3284 26.7824C35.7752 26.2562 35.1208 25.8784 34.4597 25.5209C33.3533 24.9204 32.1929 24.6034 30.9247 24.6708C30.0004 24.7248 29.1167 24.9609 28.2734 25.3117C26.8162 25.9256 25.6559 26.9308 24.7519 28.2261C24.6507 28.3745 24.5495 28.5297 24.4348 28.6646C23.9626 29.2043 23.551 29.7845 23.2272 30.4253C22.5796 31.6936 22.2895 33.0496 22.276 34.4663C22.276 34.8171 22.276 35.1882 22.3772 35.5187C22.6605 36.4565 23.0653 37.3402 23.5713 38.1835C23.5915 38.2172 23.6185 38.251 23.6388 38.2847C23.4701 37.6978 23.3419 37.1041 23.2745 36.4969C23.207 35.9168 23.2205 34.8644 23.3014 34.689C23.3352 34.8306 23.3621 34.9723 23.3959 35.1072C23.4296 35.2421 23.4701 35.3703 23.4903 35.4715C23.5376 34.9251 23.551 34.3517 23.632 33.7917C23.713 33.2318 23.8209 32.6718 23.9963 32.1321C24.2324 31.3968 24.7181 30.7964 25.2511 30.2432C26.2563 29.1975 27.4841 28.5769 28.9008 28.2868C28.9952 28.2801 29.0694 28.2733 29.1369 28.2598Z" fill="white"/>
<path d="M97.4085 24.9137L87.2892 38.4061H86.1356L76.2389 24.8665V47.4595H70.3765V16.3865H77.1227L86.8439 29.7507L96.5653 16.3865H103.271V47.4595H97.4085V24.9137V24.9137Z" fill="white"/>
<path d="M114.274 19.3615C114.274 23.5779 107.878 23.5779 107.878 19.3615C107.885 15.1451 114.274 15.1451 114.274 19.3615ZM108.371 25.4466V47.419H113.788V25.4466H108.371V25.4466Z" fill="white"/>
<path d="M134.789 47.4192V35.9641C134.789 32.6315 132.968 30.1016 129.507 30.1016C126.174 30.1016 123.914 32.9013 123.914 36.2272V47.4124H118.544V25.4805H123.381L123.739 28.4556C125.959 26.2833 128.178 25.1702 130.931 25.1702C136.078 25.1702 140.207 29.0357 140.207 35.9101V47.4056H134.789V47.4192Z" fill="white"/>
<path d="M151.567 19.3613V25.5746H157.605V30.2362H151.52V39.6944C151.52 41.779 152.673 42.8044 154.36 42.8044C155.203 42.8044 156.181 42.5413 156.977 42.1365L158.489 46.7509C156.937 47.3716 155.648 47.6414 154.002 47.6819C149.253 47.8573 146.143 45.1521 146.143 39.6876V30.2295H142.062V25.5678H146.143V19.928L151.567 19.3613Z" fill="white"/>
<path d="M160.621 16.3459H184.502V19.0984L168.385 41.8736H184.502V47.4257H160.216V44.0526L175.975 21.8576H160.614V16.3459H160.621Z" fill="#57E964"/>
<path d="M192.719 38.4063C193.077 41.1115 195.424 43.0679 199.243 43.0679C201.24 43.0679 203.857 42.3123 205.105 41.0238L208.566 44.4441C206.259 46.839 202.481 47.9926 199.155 47.9926C191.606 47.9926 187.126 43.331 187.126 36.3149C187.126 29.6564 191.653 24.8599 198.757 24.8599C206.083 24.8599 210.657 29.3866 209.814 38.3995H192.719V38.4063ZM204.613 33.9268C204.255 31.0866 202.036 29.6632 198.932 29.6632C196.004 29.6632 193.603 31.0866 192.807 33.9268H204.613Z" fill="#57E964"/>
<path d="M218.995 25.5343L219.393 28.0641C221.08 25.3589 223.347 24.9541 225.566 24.9541C227.833 24.9541 230.005 25.8446 231.206 27.0387L228.764 31.7408C227.651 30.8098 226.632 30.3173 224.858 30.3173C222.018 30.3173 219.4 31.8285 219.4 35.8695V47.4122H213.983V25.5275H218.995V25.5343Z" fill="#57E964"/>
<path d="M255 36.4967C255 42.7977 250.696 47.9046 243.592 47.9046C236.488 47.9046 232.225 42.7977 232.225 36.4967C232.225 30.2362 236.576 25.0889 243.545 25.0889C250.514 25.0889 255 30.2362 255 36.4967ZM237.642 36.4967C237.642 39.8293 239.639 42.9326 243.592 42.9326C247.545 42.9326 249.542 39.8226 249.542 36.4967C249.542 33.2113 247.235 30.0136 243.592 30.0136C239.686 30.0136 237.642 33.2113 237.642 36.4967Z" fill="#57E964"/>
</svg>
