<svg width="910" height="455" viewBox="0 0 910 455" fill="none" xmlns="http://www.w3.org/2000/svg">
<path opacity="0.5" d="M1 455C0.999997 395.38 12.7431 336.344 35.5587 281.262C58.3743 226.18 91.8157 176.131 133.974 133.973C176.131 91.8157 226.18 58.3743 281.262 35.5587C336.344 12.743 395.38 0.999969 455 0.999969C514.62 0.999969 573.656 12.743 628.738 35.5587C683.82 58.3743 733.869 91.8157 776.026 133.973C818.184 176.131 851.626 226.18 874.441 281.262C897.257 336.344 909 395.38 909 455" stroke="#57E964"/>
<path opacity="0.05" d="M554.541 92.0045C590.717 91.8956 622.099 104.42 649.232 127.945C677.018 152.232 694.344 182.617 701.099 218.993C702.407 226.29 703.17 233.805 703.497 241.211C703.933 251.339 704.368 261.577 703.497 271.705C700.446 309.279 688.133 343.15 661.109 370.377C641.931 389.763 618.503 401.198 591.807 406.426C578.949 408.931 566.091 410.891 553.015 411C547.893 411 542.663 410.456 537.651 409.367C526.318 406.862 514.986 404.357 503.98 400.763C481.533 393.575 463.99 379.526 450.369 360.358C447.1 355.674 442.85 351.754 439.254 347.288C423.781 328.338 412.34 307.319 406.238 283.467C402.642 269.527 401.335 255.369 402.315 240.884C403.187 228.033 404.93 215.399 408.417 202.983C413.757 184.033 421.711 166.281 433.479 150.271C452.984 123.806 478.809 106.489 510.409 97.7767C524.793 93.7471 539.612 91.8956 554.541 92.0045ZM524.139 169.33C524.139 169.548 524.248 169.657 524.248 169.875C523.703 170.201 523.158 170.637 522.505 170.964C514.114 175.865 506.487 181.528 499.622 188.389C492.866 195.142 486.546 202.221 479.79 208.973C458.215 230.646 448.299 257.111 446.773 287.17C446.337 296.21 447.318 305.14 448.844 314.071C450.042 320.606 451.895 326.705 456.362 331.823C459.304 335.199 461.81 338.794 464.752 342.17C478.7 358.506 495.154 371.575 514.768 380.724C517.492 382.03 520.325 383.664 523.158 383.664C530.677 383.773 538.304 383.228 545.823 382.684C552.579 382.139 559.117 380.179 565.982 380.505C589.954 381.703 611.094 374.189 629.291 358.506C632.778 355.457 636.265 351.971 638.662 347.942C647.924 332.477 652.719 315.596 653.808 297.626C654.353 289.893 654.353 282.052 654.571 274.21C655.225 257.983 653.264 242.082 648.469 226.508C647.161 222.151 645.636 217.904 644.111 213.547C656.533 230.428 663.506 249.379 666.448 270.072C666.557 266.151 666.775 262.339 666.557 258.527C664.923 231.627 654.462 208.756 635.284 189.805C631.579 186.211 627.657 182.944 623.952 179.241C618.068 173.251 612.728 166.716 606.517 161.162C591.48 147.984 574.154 139.162 554.214 136.004C551.707 135.568 549.201 135.242 546.695 134.915C547.131 134.479 547.567 134.261 548.003 134.261C562.822 131.648 577.75 131.43 592.679 133.608C596.819 134.261 601.287 134.806 604.883 136.766C621.446 145.806 635.502 157.786 647.052 172.815C663.833 194.706 672.55 219.756 674.185 247.092C675.275 263.864 673.64 280.527 669.282 296.863C667.211 304.814 665.359 312.873 663.506 320.932C664.378 320.497 664.814 319.843 665.25 319.189C668.083 313.744 671.243 308.407 673.858 302.853C681.377 286.299 685.517 268.983 686.171 250.795C686.607 238.161 685.735 225.745 682.03 213.657C675.928 193.726 665.577 176.083 652.174 160.182C650.212 157.895 648.142 155.608 645.854 152.994C646.616 152.994 646.943 152.994 647.379 152.994C647.488 152.885 647.597 152.667 647.706 152.558C645.2 150.162 642.694 147.875 640.297 145.479C631.361 136.984 620.792 130.885 610.113 125.113C592.242 115.42 573.5 110.301 553.015 111.39C538.087 112.262 523.812 116.074 510.191 121.737C486.655 131.648 467.913 147.875 453.311 168.786C451.677 171.182 450.042 173.687 448.19 175.865C440.562 184.578 433.915 193.944 428.685 204.29C418.224 224.765 413.538 246.656 413.321 269.527C413.321 275.19 413.321 281.18 414.955 286.517C419.532 301.655 426.07 315.922 434.242 329.536C434.569 330.081 435.005 330.625 435.332 331.17C432.608 321.695 430.537 312.11 429.448 302.309C428.358 292.942 428.576 275.953 429.884 273.121C430.428 275.408 430.864 277.695 431.409 279.873C431.954 282.051 432.608 284.121 432.935 285.754C433.697 276.933 433.915 267.676 435.223 258.636C436.53 249.597 438.274 240.557 441.107 231.844C444.921 219.973 452.766 210.28 461.375 201.35C477.61 184.469 497.442 174.449 520.325 169.766C521.851 169.657 523.049 169.548 524.139 169.33Z" fill="white"/>
</svg>
