<svg width="572" height="1144" viewBox="0 0 572 1144" fill="none" xmlns="http://www.w3.org/2000/svg">
<g opacity="0.5">
<mask id="path-1-inside-1_577_37" fill="white">
<path d="M-2.50029e-05 1144C75.1161 1144 149.497 1129.2 218.895 1100.46C288.293 1071.71 351.35 1029.58 404.465 976.465C457.58 923.35 499.713 860.293 528.459 790.895C557.205 721.497 572 647.116 572 572C572 496.884 557.205 422.503 528.459 353.105C499.713 283.707 457.58 220.65 404.465 167.535C351.35 114.42 288.293 72.2866 218.895 43.5409C149.497 14.7952 75.1161 -3.28343e-06 -2.50029e-05 0L0 572L-2.50029e-05 1144Z"/>
</mask>
<path d="M-2.50029e-05 1144C75.1161 1144 149.497 1129.2 218.895 1100.46C288.293 1071.71 351.35 1029.58 404.465 976.465C457.58 923.35 499.713 860.293 528.459 790.895C557.205 721.497 572 647.116 572 572C572 496.884 557.205 422.503 528.459 353.105C499.713 283.707 457.58 220.65 404.465 167.535C351.35 114.42 288.293 72.2866 218.895 43.5409C149.497 14.7952 75.1161 -3.28343e-06 -2.50029e-05 0L0 572L-2.50029e-05 1144Z" stroke="#57E964" stroke-width="2" mask="url(#path-1-inside-1_577_37)"/>
</g>
</svg>
