<svg width="572" height="1144" viewBox="0 0 572 1144" fill="none" xmlns="http://www.w3.org/2000/svg">
<g opacity="0.5">
<mask id="path-1-inside-1_580_467" fill="white">
<path d="M572 1144C496.884 1144 422.503 1129.2 353.105 1100.46C283.707 1071.71 220.65 1029.58 167.535 976.465C114.42 923.35 72.2866 860.293 43.5409 790.895C14.7952 721.497 0 647.116 0 572C0 496.884 14.7952 422.503 43.5409 353.105C72.2866 283.707 114.42 220.65 167.535 167.535C220.65 114.42 283.707 72.2866 353.105 43.5409C422.503 14.7952 496.884 -3.28343e-06 572 0L572 572L572 1144Z"/>
</mask>
<path d="M572 1144C496.884 1144 422.503 1129.2 353.105 1100.46C283.707 1071.71 220.65 1029.58 167.535 976.465C114.42 923.35 72.2866 860.293 43.5409 790.895C14.7952 721.497 0 647.116 0 572C0 496.884 14.7952 422.503 43.5409 353.105C72.2866 283.707 114.42 220.65 167.535 167.535C220.65 114.42 283.707 72.2866 353.105 43.5409C422.503 14.7952 496.884 -3.28343e-06 572 0L572 572L572 1144Z" stroke="#57E964" stroke-width="2" mask="url(#path-1-inside-1_580_467)"/>
</g>
</svg>
