<svg width="255" height="65" viewBox="0 0 255 65" fill="none" xmlns="http://www.w3.org/2000/svg">
<path d="M54.705 5.22846C54.6848 5.32965 54.6645 5.43083 54.6375 5.53202C53.2074 11.6711 47.075 15.4827 40.936 14.0525C34.8104 12.6223 30.9988 6.51024 32.4088 0.37793L54.705 5.22846Z" fill="white"/>
<path d="M22.7615 10.7872C20.6027 16.7104 14.0589 19.7596 8.13573 17.6009C6.48966 17.0004 5.0662 16.0627 3.9126 14.8956L21.1357 0C23.3957 2.98183 24.1377 7.01605 22.7615 10.7872Z" fill="#57E964"/>
<path d="M8.70261 39.4925C6.62477 42.4811 3.37311 44.1744 0 44.37L1.55837 21.7837C3.05603 22.0805 4.5132 22.6809 5.84895 23.6052C11.0233 27.2077 12.2983 34.3182 8.70261 39.4925Z" fill="white"/>
<path d="M26.4451 62.5849L6.16602 52.5263C9.33673 47.7433 15.6714 46.0162 20.893 48.7012C26.0066 51.3255 28.2869 57.2959 26.4451 62.5849Z" fill="#57E964"/>
<path d="M55.022 48.458L38.3319 64.0215C35.6671 61.1004 34.6012 56.8705 35.9032 52.8363C37.8326 46.8389 44.2685 43.54 50.2659 45.4762C52.1414 46.0766 53.7537 47.1222 55.022 48.458Z" fill="white"/>
<path d="M60.0412 40.9428C57.7947 41.1115 55.474 40.6055 53.3827 39.3642C47.9722 36.1395 46.1979 29.1369 49.4159 23.7197C51.6894 19.9013 55.8518 17.891 60.0075 18.1743L60.0412 40.9428Z" fill="#57E964"/>
<path d="M31.0191 23.47C33.2589 23.4633 35.2017 24.2391 36.8815 25.6963C38.6018 27.2007 39.6745 29.0829 40.0927 31.3361C40.1737 31.7881 40.2209 32.2536 40.2412 32.7123C40.2682 33.3397 40.2951 33.9739 40.2412 34.6013C40.0523 36.9287 39.29 39.0268 37.6169 40.7133C36.4296 41.9141 34.9791 42.6225 33.3263 42.9463C32.5302 43.1015 31.7342 43.2229 30.9247 43.2296C30.6076 43.2296 30.2838 43.1959 29.9734 43.1285C29.2718 42.9733 28.5702 42.8182 27.8889 42.5955C26.4991 42.1503 25.413 41.28 24.5697 40.0927C24.3673 39.8026 24.1042 39.5597 23.8816 39.2831C22.9236 38.1093 22.2153 36.8073 21.8375 35.3299C21.6149 34.4663 21.5339 33.5893 21.5947 32.6921C21.6486 31.896 21.7566 31.1135 21.9724 30.3444C22.303 29.1706 22.7955 28.0709 23.5241 27.0792C24.7316 25.4399 26.3305 24.3673 28.2869 23.8276C29.1774 23.5779 30.0949 23.4633 31.0191 23.47ZM29.1369 28.2598C29.1369 28.2733 29.1437 28.2801 29.1437 28.2935C29.1099 28.3138 29.0762 28.3408 29.0357 28.361C28.5163 28.6646 28.044 29.0154 27.619 29.4404C27.2007 29.8587 26.8095 30.2972 26.3912 30.7155C25.0554 32.0579 24.4415 33.6973 24.3471 35.5592C24.3201 36.1192 24.3808 36.6724 24.4753 37.2255C24.5495 37.6303 24.6642 38.0081 24.9408 38.3252C25.1229 38.5343 25.2781 38.7569 25.4602 38.9661C26.3237 39.978 27.3424 40.7875 28.5567 41.3542C28.7254 41.4352 28.9008 41.5364 29.0762 41.5364C29.5417 41.5431 30.0139 41.5094 30.4794 41.4756C30.8977 41.4419 31.3024 41.3205 31.7275 41.3407C33.2116 41.4149 34.5204 40.9495 35.647 39.978C35.8629 39.7891 36.0788 39.5732 36.2272 39.3236C36.8006 38.3656 37.0974 37.32 37.1649 36.2069C37.1986 35.7279 37.1986 35.2422 37.2121 34.7564C37.2526 33.7512 37.1312 32.7663 36.8343 31.8016C36.7534 31.5317 36.6589 31.2686 36.5645 30.9988C37.3336 32.0444 37.7653 33.2183 37.9475 34.5001C37.9542 34.2572 37.9677 34.0211 37.9542 33.785C37.853 32.1187 37.2054 30.702 36.018 29.5281C35.7887 29.3055 35.5458 29.1031 35.3164 28.8737C34.9521 28.5027 34.6216 28.0979 34.237 27.7539C33.3061 26.9376 32.2334 26.3911 30.9989 26.1955C30.8437 26.1685 30.6885 26.1483 30.5334 26.128C30.5604 26.101 30.5873 26.0875 30.6143 26.0875C31.5318 25.9256 32.4561 25.9121 33.3803 26.0471C33.6366 26.0875 33.9132 26.1213 34.1359 26.2427C35.1613 26.8026 36.0315 27.5447 36.7466 28.4757C37.7856 29.8317 38.3252 31.3833 38.4264 33.0766C38.4939 34.1155 38.3927 35.1477 38.1229 36.1596C37.9947 36.6521 37.88 37.1513 37.7653 37.6506C37.8193 37.6236 37.8463 37.5831 37.8732 37.5426C38.0486 37.2053 38.2443 36.8747 38.4062 36.5307C38.8717 35.5052 39.128 34.4326 39.1685 33.306C39.1955 32.5234 39.1415 31.7544 38.9122 31.0055C38.5344 29.771 37.8935 28.6781 37.0637 27.6931C36.9423 27.5515 36.8141 27.4098 36.6724 27.2479C36.7196 27.2479 36.7399 27.2479 36.7669 27.2479C36.7736 27.2411 36.7804 27.2276 36.7871 27.2209C36.6319 27.0725 36.4768 26.9308 36.3284 26.7824C35.7752 26.2562 35.1208 25.8784 34.4597 25.5209C33.3533 24.9204 32.1929 24.6034 30.9247 24.6708C30.0004 24.7248 29.1167 24.9609 28.2734 25.3117C26.8162 25.9256 25.6559 26.9308 24.7519 28.2261C24.6507 28.3745 24.5495 28.5297 24.4348 28.6646C23.9626 29.2043 23.551 29.7845 23.2272 30.4253C22.5796 31.6936 22.2895 33.0496 22.276 34.4663C22.276 34.8171 22.276 35.1882 22.3772 35.5187C22.6605 36.4565 23.0653 37.3402 23.5713 38.1835C23.5915 38.2172 23.6185 38.251 23.6388 38.2847C23.4701 37.6978 23.3419 37.1041 23.2745 36.4969C23.207 35.9168 23.2205 34.8644 23.3014 34.689C23.3352 34.8306 23.3621 34.9723 23.3959 35.1072C23.4296 35.2421 23.4701 35.3703 23.4903 35.4715C23.5376 34.9251 23.551 34.3517 23.632 33.7917C23.713 33.2318 23.8209 32.6718 23.9963 32.1321C24.2324 31.3968 24.7181 30.7964 25.2511 30.2432C26.2563 29.1975 27.4841 28.5769 28.9008 28.2868C28.9952 28.2801 29.0694 28.2733 29.1369 28.2598Z" fill="white"/>
<path d="M74.4512 55.7778L72.9265 57.8152H72.7511L71.2602 55.7711V59.1779H70.3765V54.4893H71.3951L72.8591 56.5064L74.323 54.4893H75.3349V59.1779H74.4512V55.7778V55.7778Z" fill="white"/>
<path d="M76.8394 59.1779V54.4893H77.7164V59.1779H76.8394Z" fill="white"/>
<path d="M82.2969 54.4819H83.1807V59.1773H82.6342V59.184L80.1719 56.0133V59.1773H79.2881V54.4886H80.0032L82.2969 57.3963V54.4819Z" fill="white"/>
<path d="M85.8792 55.2921H84.395V54.4893C85.751 54.4893 86.8911 54.4893 88.2539 54.4893V55.2921H86.7697V59.1779H85.8859V55.2921H85.8792Z" fill="white"/>
<path d="M94.8047 58.2868H92.3559L91.9511 59.1705H90.9932L93.098 54.4819H94.0627L96.1675 59.1705H95.2028L94.8047 58.2868ZM93.577 55.4736L92.7067 57.4705H94.4472L93.577 55.4736Z" fill="white"/>
<path d="M103.318 58.5839C102.839 59.0629 102.212 59.2788 101.537 59.2788C99.7967 59.2788 99.0614 58.0779 99.0547 56.8636C99.0479 55.6358 99.844 54.3945 101.537 54.3945C102.171 54.3945 102.779 54.6374 103.258 55.1096L102.671 55.6763C102.36 55.3727 101.949 55.2311 101.537 55.2311C100.404 55.2311 99.9182 56.0743 99.9249 56.8569C99.9317 57.6327 100.377 58.4423 101.537 58.4423C101.949 58.4423 102.408 58.2736 102.718 57.97L103.318 58.5839Z" fill="white"/>
<path d="M107.602 58.2868H105.153L104.749 59.1705H103.791L105.895 54.4819H106.86L108.965 59.1705H108L107.602 58.2868ZM106.374 55.4736L105.504 57.4705H107.245L106.374 55.4736Z" fill="white"/>
<path d="M114.187 59.1773H113.134L111.771 57.6121H110.921V59.1773H110.038V54.4819C110.78 54.4819 111.522 54.4886 112.264 54.4886C113.37 54.4954 113.95 55.2308 113.95 56.0403C113.95 56.6812 113.654 57.3356 112.763 57.511L114.18 59.1098V59.1773H114.187ZM110.921 55.3117V56.8093H112.264C112.824 56.8093 113.067 56.4316 113.067 56.0605C113.067 55.6827 112.817 55.3117 112.264 55.3117H110.921Z" fill="white"/>
<path d="M119.03 55.8453C119.03 56.2095 118.855 56.5536 118.423 56.7493C118.969 56.9179 119.172 57.4981 119.172 57.7949C119.172 58.8406 118.389 59.1779 117.418 59.1779C116.676 59.1779 115.94 59.1779 115.198 59.1779V54.4893C115.934 54.4893 116.676 54.4893 117.418 54.4893C118.335 54.4893 119.03 54.9008 119.03 55.8453ZM116.062 56.3715H117.411C117.964 56.3715 118.146 56.1354 118.146 55.8723C118.146 55.6564 117.971 55.2988 117.411 55.2988H116.062V56.3715ZM116.062 58.3549H117.411C117.775 58.3549 118.288 58.2334 118.288 57.7949C118.288 57.3699 117.775 57.154 117.411 57.154H116.062V58.3549Z" fill="white"/>
<path d="M125.142 56.8569C125.129 58.0712 124.387 59.2788 122.74 59.2788C121.094 59.2788 120.332 58.0914 120.332 56.8636C120.332 55.6291 121.121 54.3945 122.74 54.3945C124.353 54.3945 125.156 55.6358 125.142 56.8569ZM121.196 56.8771C121.216 57.6462 121.634 58.4692 122.734 58.4692C123.833 58.4692 124.252 57.6394 124.265 56.8704C124.279 56.0811 123.833 55.1973 122.734 55.1973C121.634 55.1973 121.182 56.0878 121.196 56.8771Z" fill="white"/>
<path d="M129.541 54.4819H130.424V59.1773H129.878V59.184L127.415 56.0133V59.1773H126.532V54.4886H127.247L129.541 57.3963V54.4819Z" fill="white"/>
<path d="M137.009 54.4819H137.893V59.1773H137.346V59.184L134.884 56.0133V59.1773H134V54.4886H134.715L137.009 57.3963V54.4819Z" fill="white"/>
<path d="M142.871 59.1779H139.363C139.363 57.6195 139.363 56.0476 139.363 54.4893H142.871V55.346H140.24V56.4255H142.777V57.2485H140.24V58.3076H142.871V59.1779Z" fill="white"/>
<path d="M148.336 54.4956V57.1806C148.336 58.5703 147.486 59.2787 146.305 59.2787C145.179 59.2787 144.221 58.5973 144.221 57.1806V54.4956H145.098V57.1806C145.098 58.0239 145.577 58.4759 146.312 58.4759C147.041 58.4759 147.459 57.9902 147.459 57.1806V54.4956H148.336Z" fill="white"/>
<path d="M151.081 55.2921H149.597V54.4893C150.946 54.4893 152.093 54.4893 153.456 54.4893V55.2921H151.972V59.1779H151.088V55.2921H151.081Z" fill="white"/>
<path d="M158.819 59.1773H157.767L156.404 57.6121H155.554V59.1773H154.67V54.4819C155.412 54.4819 156.155 54.4886 156.903 54.4886C158.01 54.4954 158.59 55.2308 158.59 56.0403C158.59 56.6812 158.293 57.3356 157.403 57.511L158.819 59.1098V59.1773V59.1773ZM155.547 55.3117V56.8093H156.89C157.45 56.8093 157.693 56.4316 157.693 56.0605C157.693 55.6827 157.443 55.3117 156.89 55.3117H155.547Z" fill="white"/>
<path d="M163.177 58.2868H160.728L160.324 59.1705H159.366L161.471 54.4819H162.435L164.54 59.1705H163.575L163.177 58.2868ZM161.95 55.4736L161.079 57.4705H162.82L161.95 55.4736Z" fill="white"/>
<path d="M166.564 54.4893V58.3616H168.972V59.1779H165.68V54.4893H166.564Z" fill="white"/>
<path d="M172.285 59.1775V54.4956H175.651V55.3456H173.169V56.6274H175.516V57.4437H173.169V59.1775H172.285Z" fill="white"/>
<path d="M181.682 56.8569C181.669 58.0712 180.927 59.2788 179.281 59.2788C177.634 59.2788 176.872 58.0914 176.872 56.8636C176.872 55.6291 177.661 54.3945 179.281 54.3945C180.893 54.3945 181.696 55.6358 181.682 56.8569ZM177.736 56.8771C177.756 57.6462 178.174 58.4692 179.274 58.4692C180.38 58.4692 180.792 57.6394 180.805 56.8704C180.819 56.0811 180.373 55.1973 179.274 55.1973C178.174 55.1973 177.715 56.0878 177.736 56.8771Z" fill="white"/>
<path d="M187.612 56.8569C187.598 58.0712 186.856 59.2788 185.21 59.2788C183.564 59.2788 182.802 58.0914 182.802 56.8636C182.802 55.6291 183.591 54.3945 185.21 54.3945C186.823 54.3945 187.625 55.6358 187.612 56.8569ZM183.665 56.8771C183.686 57.6462 184.104 58.4692 185.203 58.4692C186.31 58.4692 186.721 57.6394 186.735 56.8704C186.748 56.0811 186.303 55.1973 185.203 55.1973C184.104 55.1973 183.645 56.0878 183.665 56.8771Z" fill="white"/>
<path d="M189.865 55.2921H188.381V54.4893C189.73 54.4893 190.877 54.4893 192.24 54.4893V55.2921H190.756V59.1779H189.872V55.2921H189.865Z" fill="white"/>
<path d="M195.654 57.7943H194.332V59.1773H193.448V54.4886C194.183 54.4886 194.918 54.4819 195.66 54.4819C197.941 54.4819 197.947 57.7943 195.654 57.7943ZM194.332 56.9848H195.654C196.787 56.9848 196.78 55.3252 195.654 55.3252H194.332V56.9848Z" fill="white"/>
<path d="M202.798 59.1773H201.745L200.383 57.6121H199.533V59.1773H198.649V54.4819C199.391 54.4819 200.133 54.4886 200.882 54.4886C201.988 54.4954 202.568 55.2308 202.568 56.0403C202.568 56.6812 202.272 57.3356 201.381 57.511L202.798 59.1098V59.1773V59.1773ZM199.533 55.3117V56.8093H200.875C201.435 56.8093 201.678 56.4316 201.678 56.0605C201.678 55.6827 201.428 55.3117 200.875 55.3117H199.533Z" fill="white"/>
<path d="M203.837 59.1779V54.4893H204.714V59.1779H203.837Z" fill="white"/>
<path d="M209.294 54.4819H210.178V59.1773H209.632V59.184L207.169 56.0133V59.1773H206.286V54.4886H207.001L209.294 57.3963V54.4819Z" fill="white"/>
<path d="M212.87 55.2921H211.386V54.4893C212.735 54.4893 213.882 54.4893 215.245 54.4893V55.2921H213.76V59.1779H212.877V55.2921H212.87Z" fill="white"/>
<path d="M97.4085 24.9139L87.2892 38.4064H86.1356L76.2389 24.8667V47.4598H70.3765V16.3867H77.1227L86.8439 29.751L96.5653 16.3867H103.271V47.4598H97.4085V24.9139V24.9139Z" fill="white"/>
<path d="M114.274 19.3615C114.274 23.5779 107.878 23.5779 107.878 19.3615C107.885 15.1451 114.274 15.1451 114.274 19.3615ZM108.371 25.4466V47.419H113.788V25.4466H108.371V25.4466Z" fill="white"/>
<path d="M134.789 47.4189V35.9639C134.789 32.6312 132.968 30.1014 129.507 30.1014C126.174 30.1014 123.914 32.9011 123.914 36.227V47.4122H118.544V25.4802H123.381L123.739 28.4553C125.959 26.283 128.178 25.1699 130.931 25.1699C136.078 25.1699 140.207 29.0355 140.207 35.9099V47.4054H134.789V47.4189Z" fill="white"/>
<path d="M151.567 19.3613V25.5746H157.605V30.2362H151.52V39.6944C151.52 41.779 152.673 42.8044 154.36 42.8044C155.203 42.8044 156.181 42.5413 156.977 42.1365L158.489 46.7509C156.937 47.3716 155.648 47.6414 154.002 47.6819C149.253 47.8573 146.143 45.1521 146.143 39.6876V30.2295H142.062V25.5678H146.143V19.928L151.567 19.3613Z" fill="white"/>
<path d="M160.621 16.3462H184.502V19.0987L168.385 41.8739H184.502V47.426H160.216V44.0529L175.975 21.8579H160.614V16.3462H160.621Z" fill="#57E964"/>
<path d="M192.719 38.4063C193.077 41.1115 195.424 43.0679 199.243 43.0679C201.24 43.0679 203.857 42.3123 205.105 41.0238L208.566 44.4441C206.259 46.839 202.481 47.9926 199.155 47.9926C191.606 47.9926 187.126 43.331 187.126 36.3149C187.126 29.6564 191.653 24.8599 198.757 24.8599C206.083 24.8599 210.657 29.3866 209.814 38.3995H192.719V38.4063ZM204.613 33.9268C204.255 31.0866 202.036 29.6632 198.932 29.6632C196.004 29.6632 193.603 31.0866 192.807 33.9268H204.613Z" fill="#57E964"/>
<path d="M218.995 25.5343L219.393 28.0641C221.08 25.3589 223.347 24.9541 225.566 24.9541C227.833 24.9541 230.005 25.8446 231.206 27.0387L228.764 31.7408C227.651 30.8098 226.632 30.3173 224.858 30.3173C222.018 30.3173 219.4 31.8285 219.4 35.8695V47.4122H213.983V25.5275H218.995V25.5343Z" fill="#57E964"/>
<path d="M255 36.4967C255 42.7977 250.696 47.9046 243.592 47.9046C236.488 47.9046 232.225 42.7977 232.225 36.4967C232.225 30.2362 236.576 25.0889 243.545 25.0889C250.514 25.0889 255 30.2362 255 36.4967ZM237.642 36.4967C237.642 39.8293 239.639 42.9326 243.592 42.9326C247.545 42.9326 249.542 39.8226 249.542 36.4967C249.542 33.2113 247.235 30.0136 243.592 30.0136C239.686 30.0136 237.642 33.2113 237.642 36.4967Z" fill="#57E964"/>
</svg>
