<svg width="27" height="81" viewBox="0 0 27 81" fill="none" xmlns="http://www.w3.org/2000/svg">
<path d="M13.5 0C6.04756 0.00833125 0.00825987 6.09982 0 13.6167V29.3833C0 36.9036 6.04418 43 13.5 43C20.9558 43 27 36.9036 27 29.3833V13.6167C26.9917 6.09982 20.9524 0.00833125 13.5 0ZM14.9211 7.16667V11.4667C14.9211 12.2583 14.2849 12.9 13.5 12.9C12.7151 12.9 12.0789 12.2583 12.0789 11.4667V7.16667C12.0789 6.37502 12.7151 5.73333 13.5 5.73333C14.2849 5.73333 14.9211 6.37502 14.9211 7.16667ZM1.42105 13.6167C1.43162 7.1733 6.4125 1.85142 12.7895 1.46988V4.40177C11.5385 4.72758 10.6628 5.8635 10.6579 7.16667V11.4667C10.6628 12.7698 11.5385 13.9058 12.7895 14.2316V17.2H1.42105V13.6167ZM25.5789 29.3833C25.5715 36.1089 20.1679 41.5591 13.5 41.5667C6.83207 41.5591 1.42851 36.1089 1.42105 29.3833V18.6333H25.5789V29.3833ZM25.5789 17.2H14.2105V14.2316C15.4616 13.9058 16.3372 12.7698 16.3421 11.4667V7.16667C16.3372 5.8635 15.4616 4.72758 14.2105 4.40177V1.46988C20.5875 1.85142 25.5684 7.1733 25.5789 13.6167V17.2Z" fill="#52ABBF"/>
<path d="M3 52L13 62L23 52" stroke="#4DA0B4" stroke-linecap="round" stroke-linejoin="round"/>
<path d="M3 61L13 71L23 61" stroke="#4DA0B4" stroke-opacity="0.6" stroke-linecap="round" stroke-linejoin="round"/>
<path d="M3 70L13 80L23 70" stroke="#4DA0B4" stroke-opacity="0.3" stroke-linecap="round" stroke-linejoin="round"/>
</svg>
