<svg width="307" height="648" viewBox="0 0 307 648" fill="none" xmlns="http://www.w3.org/2000/svg">
<path d="M182.856 628.262H120.122C118.156 628.262 116.637 626.656 116.637 624.783V624.604C116.637 622.641 118.246 621.124 120.122 621.124H182.856C184.822 621.124 186.341 622.73 186.341 624.604V624.783C186.341 626.656 184.822 628.262 182.856 628.262Z" stroke="#57E964" stroke-miterlimit="10"/>
<path d="M182.856 27.3218H120.122C118.156 27.3218 116.637 25.7157 116.637 23.842V23.6635C116.637 21.7006 118.246 20.1837 120.122 20.1837H182.856C184.822 20.1837 186.341 21.7898 186.341 23.6635V23.842C186.341 25.7157 184.822 27.3218 182.856 27.3218Z" stroke="#57E964" stroke-miterlimit="10"/>
<path d="M266.59 1H36.4776C16.9068 1 1 16.9715 1 36.6906V611.309C1 631.028 16.9068 647 36.4776 647H134.868C135.046 646.286 135.672 645.751 136.476 645.751H166.86C167.664 645.751 168.29 646.286 168.469 647H266.68C286.251 647 302.157 631.028 302.157 611.309V36.6906C302.068 16.9715 286.161 1 266.59 1Z" stroke="#57E964" stroke-miterlimit="10"/>
<path d="M265.429 642.003H37.6393C19.1409 642.003 4.12775 627.013 4.12775 608.543V38.6536C4.12775 20.1837 19.1409 5.19365 37.6393 5.19365H265.518C284.016 5.19365 299.03 20.1837 299.03 38.6536V608.633C298.94 627.013 283.927 642.003 265.429 642.003Z" stroke="#57E964" stroke-miterlimit="10"/>
<path d="M275.616 601.494H27.4518C19.4984 601.494 13.0642 595.07 13.0642 587.129V66.2246C13.0642 58.2834 19.4984 51.8591 27.4518 51.8591H275.616C283.57 51.8591 290.004 58.2834 290.004 66.2246V587.04C290.093 595.07 283.57 601.494 275.616 601.494Z" stroke="#57E964" stroke-miterlimit="10"/>
<path d="M302.068 140.729V186.591H302.425C304.391 186.591 305.911 184.985 305.911 183.111V144.209C305.911 142.246 304.302 140.729 302.425 140.729H302.068Z" stroke="#57E964" stroke-miterlimit="10"/>
<path d="M302.068 229.063V319.539C304.213 319.539 306 317.754 306 315.613V232.989C306 230.758 304.213 229.063 302.068 229.063Z" stroke="#57E964" stroke-miterlimit="10"/>
<path d="M93.8494 40.2597C97.7978 40.2597 100.999 37.0638 100.999 33.1215C100.999 29.1793 97.7978 25.9834 93.8494 25.9834C89.901 25.9834 86.7003 29.1793 86.7003 33.1215C86.7003 37.0638 89.901 40.2597 93.8494 40.2597Z" stroke="#57E964" stroke-miterlimit="10"/>
<path d="M97.0259 36.6339C98.9662 34.8825 99.1172 31.8921 97.3631 29.9547C95.6089 28.0173 92.6139 27.8666 90.6735 29.618C88.7331 31.3694 88.5821 34.3598 90.3363 36.2972C92.0904 38.2346 95.0855 38.3854 97.0259 36.6339Z" stroke="#57E964" stroke-miterlimit="10"/>
<path d="M59.2522 36.8365C61.3061 35.219 61.6579 32.2454 60.038 30.1946C58.418 28.1438 55.4397 27.7926 53.3858 29.4101C51.3319 31.0275 50.9801 34.0012 52.6001 36.0519C54.22 38.1027 57.1983 38.4539 59.2522 36.8365Z" stroke="#57E964" stroke-miterlimit="10"/>
<path d="M58.422 35.7845C59.8946 34.6248 60.1468 32.4927 58.9853 31.0224C57.8239 29.552 55.6885 29.3002 54.2159 30.4599C52.7433 31.6196 52.491 33.7517 53.6525 35.222C54.814 36.6924 56.9493 36.9442 58.422 35.7845Z" stroke="#57E964" stroke-miterlimit="10"/>
<path d="M202.978 225.598C202.933 225.823 202.888 226.047 202.828 226.272C199.656 239.89 186.052 248.346 172.434 245.173C158.845 242.001 150.39 228.442 153.517 214.838L202.978 225.598Z" fill="white"/>
<path d="M132.117 237.93C127.328 251.069 112.811 257.834 99.6716 253.045C96.02 251.713 92.8623 249.633 90.3032 247.044L128.51 214C133.523 220.615 135.169 229.564 132.117 237.93Z" fill="#57E964"/>
<path d="M100.929 301.608C96.3195 308.237 89.1062 311.994 81.6235 312.428L85.0805 262.324C88.4029 262.982 91.6354 264.314 94.5985 266.364C106.077 274.356 108.905 290.129 100.929 301.608Z" fill="white"/>
<path d="M140.288 352.834L95.3018 330.521C102.335 319.91 116.388 316.079 127.971 322.035C139.315 327.857 144.373 341.101 140.288 352.834Z" fill="#57E964"/>
<path d="M203.681 321.496L166.657 356.022C160.745 349.542 158.381 340.158 161.269 331.209C165.549 317.905 179.826 310.587 193.131 314.882C197.291 316.214 200.868 318.533 203.681 321.496Z" fill="white"/>
<path d="M214.815 304.825C209.832 305.199 204.684 304.077 200.044 301.323C188.042 294.17 184.106 278.636 191.245 266.618C196.288 258.148 205.522 253.688 214.74 254.317L214.815 304.825Z" fill="#57E964"/>
<path d="M150.435 266.064C155.403 266.049 159.713 267.77 163.44 271.003C167.256 274.34 169.635 278.516 170.563 283.514C170.743 284.517 170.848 285.549 170.892 286.567C170.952 287.959 171.012 289.365 170.892 290.757C170.473 295.92 168.782 300.575 165.071 304.316C162.437 306.98 159.219 308.551 155.553 309.269C153.787 309.614 152.021 309.883 150.225 309.898C149.522 309.898 148.804 309.823 148.115 309.674C146.559 309.329 145.002 308.985 143.491 308.491C140.408 307.504 137.999 305.573 136.128 302.939C135.679 302.296 135.095 301.757 134.601 301.143C132.476 298.539 130.905 295.651 130.067 292.374C129.573 290.458 129.393 288.512 129.528 286.522C129.648 284.756 129.887 283.02 130.366 281.314C131.1 278.71 132.192 276.271 133.808 274.071C136.487 270.434 140.034 268.055 144.374 266.858C146.349 266.304 148.385 266.049 150.435 266.064ZM146.259 276.69C146.259 276.72 146.274 276.735 146.274 276.765C146.2 276.809 146.125 276.869 146.035 276.914C144.883 277.588 143.835 278.366 142.892 279.309C141.964 280.237 141.096 281.209 140.169 282.137C137.205 285.115 135.844 288.752 135.634 292.882C135.574 294.124 135.709 295.352 135.918 296.579C136.083 297.477 136.337 298.315 136.951 299.018C137.355 299.482 137.699 299.976 138.103 300.44C140.019 302.685 142.279 304.481 144.972 305.738C145.347 305.917 145.736 306.142 146.125 306.142C147.157 306.157 148.205 306.082 149.238 306.007C150.165 305.932 151.063 305.663 152.006 305.708C155.299 305.872 158.202 304.84 160.701 302.685C161.18 302.266 161.659 301.787 161.988 301.233C163.26 299.108 163.919 296.788 164.068 294.319C164.143 293.256 164.143 292.179 164.173 291.101C164.263 288.872 163.993 286.687 163.335 284.547C163.155 283.948 162.946 283.364 162.736 282.766C164.442 285.085 165.4 287.689 165.804 290.533C165.819 289.994 165.849 289.47 165.819 288.946C165.595 285.25 164.158 282.107 161.524 279.503C161.015 279.009 160.477 278.56 159.968 278.052C159.16 277.229 158.426 276.331 157.573 275.567C155.508 273.757 153.129 272.544 150.39 272.11C150.046 272.051 149.702 272.006 149.357 271.961C149.417 271.901 149.477 271.871 149.537 271.871C151.572 271.512 153.622 271.482 155.673 271.781C156.241 271.871 156.855 271.946 157.349 272.215C159.624 273.457 161.554 275.103 163.14 277.169C165.445 280.177 166.642 283.619 166.867 287.375C167.016 289.68 166.792 291.969 166.193 294.214C165.909 295.307 165.655 296.414 165.4 297.522C165.52 297.462 165.58 297.372 165.64 297.282C166.029 296.534 166.463 295.801 166.822 295.037C167.854 292.763 168.423 290.383 168.513 287.884C168.573 286.148 168.453 284.442 167.944 282.781C167.106 280.042 165.685 277.618 163.844 275.433C163.574 275.118 163.29 274.804 162.976 274.445C163.081 274.445 163.125 274.445 163.185 274.445C163.2 274.43 163.215 274.4 163.23 274.385C162.886 274.056 162.542 273.742 162.213 273.412C160.985 272.245 159.534 271.407 158.067 270.614C155.613 269.282 153.039 268.579 150.225 268.728C148.175 268.848 146.215 269.372 144.344 270.15C141.111 271.512 138.537 273.742 136.532 276.615C136.307 276.944 136.083 277.288 135.829 277.588C134.781 278.785 133.868 280.072 133.15 281.494C131.713 284.307 131.07 287.315 131.04 290.458C131.04 291.236 131.04 292.059 131.264 292.793C131.893 294.873 132.791 296.833 133.913 298.704C133.958 298.779 134.018 298.854 134.063 298.928C133.689 297.626 133.404 296.309 133.255 294.963C133.105 293.675 133.135 291.341 133.314 290.952C133.389 291.266 133.449 291.58 133.524 291.88C133.599 292.179 133.689 292.463 133.733 292.688C133.838 291.476 133.868 290.204 134.048 288.961C134.227 287.719 134.467 286.477 134.856 285.28C135.38 283.649 136.457 282.317 137.639 281.09C139.869 278.77 142.593 277.393 145.736 276.75C145.945 276.735 146.11 276.72 146.259 276.69Z" fill="white"/>
<path d="M85.6982 430.383L84.1736 432.42H83.9982L82.5073 430.376V433.783H81.6235V429.094H82.6422L84.1061 431.112L85.5701 429.094H86.582V433.783H85.6982V430.383V430.383Z" fill="white"/>
<path d="M88.0864 433.783V429.094H88.9634V433.783H88.0864Z" fill="white"/>
<path d="M93.5441 429.088H94.4278V433.783H93.8814V433.79L91.419 430.619V433.783H90.5352V429.094H91.2504L93.5441 432.002V429.088Z" fill="white"/>
<path d="M97.1263 429.897H95.6421V429.094C96.9981 429.094 98.1382 429.094 99.5009 429.094V429.897H98.0168V433.783H97.133V429.897H97.1263Z" fill="white"/>
<path d="M106.052 432.892H103.603L103.198 433.776H102.24L104.345 429.088H105.31L107.415 433.776H106.45L106.052 432.892ZM104.824 430.079L103.954 432.076H105.694L104.824 430.079Z" fill="white"/>
<path d="M114.565 433.189C114.086 433.668 113.459 433.884 112.784 433.884C111.044 433.884 110.308 432.683 110.302 431.469C110.295 430.241 111.091 429 112.784 429C113.418 429 114.026 429.243 114.505 429.715L113.918 430.282C113.607 429.978 113.196 429.837 112.784 429.837C111.651 429.837 111.165 430.68 111.172 431.462C111.179 432.238 111.624 433.048 112.784 433.048C113.196 433.048 113.655 432.879 113.965 432.575L114.565 433.189Z" fill="white"/>
<path d="M118.849 432.892H116.4L115.996 433.776H115.038L117.142 429.088H118.107L120.212 433.776H119.247L118.849 432.892ZM117.621 430.079L116.751 432.076H118.492L117.621 430.079Z" fill="white"/>
<path d="M125.434 433.783H124.381L123.018 432.218H122.168V433.783H121.285V429.088C122.027 429.088 122.769 429.094 123.511 429.094C124.617 429.101 125.197 429.836 125.197 430.646C125.197 431.287 124.901 431.941 124.01 432.117L125.427 433.716V433.783H125.434ZM122.168 429.917V431.415H123.511C124.071 431.415 124.314 431.037 124.314 430.666C124.314 430.288 124.064 429.917 123.511 429.917H122.168Z" fill="white"/>
<path d="M130.277 430.45C130.277 430.815 130.102 431.159 129.67 431.354C130.216 431.523 130.419 432.103 130.419 432.4C130.419 433.446 129.636 433.783 128.665 433.783C127.923 433.783 127.187 433.783 126.445 433.783V429.094C127.181 429.094 127.923 429.094 128.665 429.094C129.582 429.094 130.277 429.506 130.277 430.45ZM127.309 430.977H128.658C129.211 430.977 129.393 430.741 129.393 430.477C129.393 430.262 129.218 429.904 128.658 429.904H127.309V430.977ZM127.309 432.96H128.658C129.022 432.96 129.535 432.839 129.535 432.4C129.535 431.975 129.022 431.759 128.658 431.759H127.309V432.96Z" fill="white"/>
<path d="M136.389 431.462C136.376 432.677 135.634 433.884 133.988 433.884C132.341 433.884 131.579 432.697 131.579 431.469C131.579 430.235 132.368 429 133.988 429C135.6 429 136.403 430.241 136.389 431.462ZM132.443 431.483C132.463 432.252 132.881 433.075 133.981 433.075C135.08 433.075 135.499 432.245 135.512 431.476C135.526 430.687 135.08 429.803 133.981 429.803C132.881 429.803 132.429 430.693 132.443 431.483Z" fill="white"/>
<path d="M140.788 429.088H141.671V433.783H141.125V433.79L138.663 430.619V433.783H137.779V429.094H138.494L140.788 432.002V429.088Z" fill="white"/>
<path d="M148.256 429.088H149.14V433.783H148.593V433.79L146.131 430.619V433.783H145.247V429.094H145.962L148.256 432.002V429.088Z" fill="white"/>
<path d="M154.118 433.783H150.61C150.61 432.225 150.61 430.653 150.61 429.094H154.118V429.951H151.487V431.031H154.024V431.854H151.487V432.913H154.118V433.783Z" fill="white"/>
<path d="M159.583 429.101V431.786C159.583 433.176 158.733 433.884 157.552 433.884C156.426 433.884 155.468 433.203 155.468 431.786V429.101H156.345V431.786C156.345 432.629 156.824 433.081 157.559 433.081C158.288 433.081 158.706 432.596 158.706 431.786V429.101H159.583Z" fill="white"/>
<path d="M162.328 429.897H160.844V429.094C162.193 429.094 163.34 429.094 164.703 429.094V429.897H163.219V433.783H162.335V429.897H162.328Z" fill="white"/>
<path d="M170.066 433.783H169.014L167.651 432.218H166.801V433.783H165.917V429.088C166.66 429.088 167.402 429.094 168.15 429.094C169.257 429.101 169.837 429.836 169.837 430.646C169.837 431.287 169.54 431.941 168.65 432.117L170.066 433.716V433.783V433.783ZM166.794 429.917V431.415H168.137C168.697 431.415 168.94 431.037 168.94 430.666C168.94 430.288 168.69 429.917 168.137 429.917H166.794Z" fill="white"/>
<path d="M174.424 432.892H171.975L171.571 433.776H170.613L172.718 429.088H173.682L175.787 433.776H174.822L174.424 432.892ZM173.197 430.079L172.326 432.076H174.067L173.197 430.079Z" fill="white"/>
<path d="M177.811 429.094V432.967H180.219V433.783H176.927V429.094H177.811Z" fill="white"/>
<path d="M183.532 433.783V429.101H186.898V429.951H184.416V431.233H186.763V432.049H184.416V433.783H183.532Z" fill="white"/>
<path d="M192.929 431.462C192.916 432.677 192.174 433.884 190.528 433.884C188.882 433.884 188.119 432.697 188.119 431.469C188.119 430.235 188.909 429 190.528 429C192.14 429 192.943 430.241 192.929 431.462ZM188.983 431.483C189.003 432.252 189.421 433.075 190.521 433.075C191.627 433.075 192.039 432.245 192.052 431.476C192.066 430.687 191.62 429.803 190.521 429.803C189.421 429.803 188.962 430.693 188.983 431.483Z" fill="white"/>
<path d="M198.859 431.462C198.845 432.677 198.103 433.884 196.457 433.884C194.811 433.884 194.049 432.697 194.049 431.469C194.049 430.235 194.838 429 196.457 429C198.07 429 198.872 430.241 198.859 431.462ZM194.912 431.483C194.933 432.252 195.351 433.075 196.45 433.075C197.557 433.075 197.968 432.245 197.982 431.476C197.995 430.687 197.55 429.803 196.45 429.803C195.351 429.803 194.892 430.693 194.912 431.483Z" fill="white"/>
<path d="M201.112 429.897H199.628V429.094C200.977 429.094 202.124 429.094 203.487 429.094V429.897H202.003V433.783H201.119V429.897H201.112Z" fill="white"/>
<path d="M206.901 432.4H205.579V433.783H204.695V429.094C205.43 429.094 206.165 429.088 206.908 429.088C209.188 429.088 209.195 432.4 206.901 432.4ZM205.579 431.59H206.901C208.034 431.59 208.027 429.931 206.901 429.931H205.579V431.59Z" fill="white"/>
<path d="M214.045 433.783H212.992L211.63 432.218H210.78V433.783H209.896V429.088C210.638 429.088 211.38 429.094 212.129 429.094C213.235 429.101 213.816 429.836 213.816 430.646C213.816 431.287 213.519 431.941 212.628 432.117L214.045 433.716V433.783V433.783ZM210.78 429.917V431.415H212.122C212.682 431.415 212.925 431.037 212.925 430.666C212.925 430.288 212.675 429.917 212.122 429.917H210.78Z" fill="white"/>
<path d="M215.084 433.783V429.094H215.961V433.783H215.084Z" fill="white"/>
<path d="M220.541 429.088H221.425V433.783H220.879V433.79L218.416 430.619V433.783H217.533V429.094H218.248L220.541 432.002V429.088Z" fill="white"/>
<path d="M224.117 429.897H222.633V429.094C223.982 429.094 225.129 429.094 226.492 429.094V429.897H225.007V433.783H224.124V429.897H224.117Z" fill="white"/>
<path d="M89.0321 394.914L78.9128 408.406H77.7591L67.8625 394.866V417.46H62V386.386H68.7462L78.4675 399.751L88.1888 386.386H94.8945V417.46H89.0321V394.914V394.914Z" fill="white"/>
<path d="M105.897 389.362C105.897 393.578 99.502 393.578 99.502 389.362C99.5087 385.145 105.897 385.145 105.897 389.362ZM99.9945 395.447V417.419H105.412V395.447H99.9945V395.447Z" fill="white"/>
<path d="M126.413 417.419V405.964C126.413 402.631 124.591 400.102 121.131 400.102C117.798 400.102 115.538 402.901 115.538 406.227V417.412H110.168V395.48H115.005L115.363 398.456C117.582 396.283 119.802 395.17 122.554 395.17C127.701 395.17 131.83 399.036 131.83 405.91V417.406H126.413V417.419Z" fill="white"/>
<path d="M143.19 389.361V395.575H149.228V400.236H143.143V409.694C143.143 411.779 144.297 412.804 145.983 412.804C146.827 412.804 147.805 412.541 148.601 412.137L150.112 416.751C148.56 417.372 147.272 417.641 145.626 417.682C140.876 417.857 137.767 415.152 137.767 409.688V400.229H133.685V395.568H137.767V389.928L143.19 389.361Z" fill="white"/>
<path d="M152.244 386.346H176.126V389.098L160.009 411.874H176.126V417.426H151.839V414.053L167.598 391.858H152.237V386.346H152.244Z" fill="#57E964"/>
<path d="M184.343 408.406C184.7 411.111 187.048 413.068 190.866 413.068C192.863 413.068 195.481 412.312 196.729 411.024L200.189 414.444C197.882 416.839 194.104 417.993 190.778 417.993C183.229 417.993 178.75 413.331 178.75 406.315C178.75 399.656 183.277 394.86 190.38 394.86C197.707 394.86 202.281 399.387 201.437 408.4H184.343V408.406ZM196.236 403.927C195.879 401.087 193.659 399.663 190.556 399.663C187.628 399.663 185.226 401.087 184.43 403.927H196.236Z" fill="#57E964"/>
<path d="M210.619 395.534L211.017 398.064C212.703 395.359 214.97 394.954 217.19 394.954C219.456 394.954 221.629 395.845 222.829 397.039L220.387 401.741C219.274 400.81 218.256 400.317 216.481 400.317C213.641 400.317 211.024 401.828 211.024 405.869V417.412H205.606V395.528H210.619V395.534Z" fill="#57E964"/>
<path d="M246.623 406.497C246.623 412.798 242.319 417.905 235.216 417.905C228.112 417.905 223.848 412.798 223.848 406.497C223.848 400.236 228.199 395.089 235.168 395.089C242.137 395.089 246.623 400.236 246.623 406.497ZM229.265 406.497C229.265 409.829 231.262 412.933 235.216 412.933C239.169 412.933 241.166 409.823 241.166 406.497C241.166 403.211 238.858 400.014 235.216 400.014C231.309 400.014 229.265 403.211 229.265 406.497Z" fill="#57E964"/>
</svg>
