<svg width="8" height="8" viewBox="0 0 8 8" fill="none" xmlns="http://www.w3.org/2000/svg">
<path d="M6.91858 3.62492C7.00637 4.21696 6.90525 4.82162 6.62959 5.35287C6.35393 5.88413 5.91777 6.31495 5.38315 6.58403C4.84854 6.85312 4.24268 6.94678 3.65176 6.8517C3.06085 6.75661 2.51496 6.47762 2.09174 6.0544C1.66852 5.63118 1.38953 5.08529 1.29444 4.49438C1.19936 3.90346 1.29302 3.29761 1.56211 2.76299C1.8312 2.22837 2.26201 1.79221 2.79327 1.51655C3.32453 1.24089 3.92918 1.13977 4.52122 1.22756C5.12513 1.31711 5.68423 1.59852 6.11593 2.03022C6.54762 2.46191 6.82903 3.02101 6.91858 3.62492Z" stroke="white" stroke-linecap="round" stroke-linejoin="round"/>
</svg>
