<svg width="55" height="52" viewBox="0 0 55 52" fill="none" xmlns="http://www.w3.org/2000/svg">
<path d="M54.8939 28.5022C54.4001 23.61 52.1811 18.9978 48.6453 15.5153C45.6237 12.5393 41.9253 10.6268 38.0338 9.77649V7.0882C39.6233 6.69873 40.8047 5.28168 40.8047 3.59737C40.8047 1.61374 39.1663 0 37.1523 0H29.4178C27.4038 0 25.7654 1.61374 25.7654 3.59737C25.7654 5.28158 26.9469 6.69862 28.5362 7.0882V9.784C24.6566 10.638 20.9705 12.5477 17.9574 15.5154C17.2981 16.1648 16.6901 16.8461 16.1335 17.5541C16.1065 17.5521 16.0796 17.5501 16.0521 17.5501H8.39697C7.80378 17.5501 7.32274 18.0238 7.32274 18.6081C7.32274 19.1925 7.80378 19.6662 8.39697 19.6662H14.6718C13.8842 20.965 13.2491 22.3289 12.7657 23.7329H1.07423C0.481042 23.7329 0 24.2066 0 24.791C0 25.3753 0.481042 25.849 1.07423 25.849H12.1586C11.849 27.1876 11.6713 28.5498 11.6255 29.9158H6.8751C6.28191 29.9158 5.80087 30.3895 5.80087 30.9739C5.80087 31.5583 6.28191 32.0319 6.8751 32.0319H11.6597C11.7504 33.4015 11.974 34.7638 12.3305 36.0988H5.37117C4.77798 36.0988 4.29694 36.5725 4.29694 37.1568C4.29694 37.7412 4.77798 38.2149 5.37117 38.2149H13.0161C14.0699 40.9606 15.7168 43.5341 17.9574 45.741C21.4966 49.2269 26.1842 51.413 31.1564 51.8968C31.866 51.9658 32.5762 52 33.2854 52C37.4773 52 41.6159 50.8051 45.1275 48.5528C45.6247 48.2339 45.7653 47.5784 45.4415 47.0887C45.1178 46.5991 44.4523 46.4606 43.9551 46.7795C36.2682 51.7097 25.9735 50.6437 19.4766 44.2447C11.8536 36.7366 11.8536 24.52 19.4766 17.0118C27.0995 9.50373 39.5029 9.50373 47.126 17.0118C53.6143 23.4024 54.7025 33.5333 49.7134 41.1007C49.3903 41.5908 49.5318 42.2462 50.0293 42.5643C50.5271 42.8826 51.1922 42.7432 51.5153 42.2531C54.1809 38.2098 55.3808 33.3264 54.8939 28.5022ZM27.9139 3.59748C27.9139 2.78066 28.5885 2.11621 29.4178 2.11621H37.1523C37.9816 2.11621 38.6562 2.78066 38.6562 3.59748C38.6562 4.41429 37.9816 5.07875 37.1523 5.07875H29.4178C28.5885 5.07875 27.9139 4.41419 27.9139 3.59748ZM30.6847 9.42025V7.19485H35.8854V9.41644C34.1584 9.21414 32.4113 9.21541 30.6847 9.42025Z" fill="white"/>
<path d="M47.8861 43.9343C47.6026 43.9343 47.3265 44.0475 47.1268 44.2443C46.9259 44.4411 46.8119 44.714 46.8119 44.9923C46.8119 45.2706 46.9259 45.5435 47.1268 45.7403C47.3265 45.9382 47.6027 46.0503 47.8861 46.0503C48.1687 46.0503 48.4447 45.9382 48.6456 45.7403C48.8454 45.5435 48.9604 45.2706 48.9604 44.9923C48.9604 44.714 48.8455 44.4411 48.6456 44.2443C48.4447 44.0475 48.1686 43.9343 47.8861 43.9343Z" fill="white"/>
<path d="M33.3014 14.2146C24.1126 14.2146 16.6369 21.5776 16.6369 30.628C16.6369 39.6785 24.1126 47.0414 33.3014 47.0414C42.4902 47.0414 49.9659 39.6785 49.9659 30.628C49.9659 21.5776 42.4902 14.2146 33.3014 14.2146ZM33.3014 44.9253C25.2972 44.9253 18.7854 38.5116 18.7854 30.628C18.7854 22.7445 25.2972 16.3307 33.3014 16.3307C41.3056 16.3307 47.8174 22.7445 47.8174 30.628C47.8174 38.5116 41.3056 44.9253 33.3014 44.9253Z" fill="white"/>
<path d="M40.0966 22.4389L34.7759 27.6793C34.3309 27.4626 33.8305 27.3402 33.3014 27.3402C32.7722 27.3402 32.2718 27.4626 31.8269 27.6793L29.4456 25.334C29.026 24.9208 28.3461 24.9208 27.9263 25.334C27.5069 25.7471 27.5069 26.4171 27.9263 26.8303L30.3076 29.1756C30.0875 29.6139 29.9633 30.1068 29.9633 30.6279C29.9633 32.4408 31.4607 33.9157 33.3014 33.9157C35.1421 33.9157 36.6395 32.4408 36.6395 30.6279C36.6395 30.1068 36.5152 29.6139 36.2952 29.1756L41.6158 23.9352C42.0352 23.522 42.0352 22.8521 41.6158 22.4389C41.1963 22.0258 40.5163 22.0258 40.0966 22.4389ZM33.3014 31.7997C32.6455 31.7997 32.1118 31.2741 32.1118 30.628C32.1118 29.982 32.6455 29.4563 33.3014 29.4563C33.9573 29.4563 34.491 29.982 34.491 30.628C34.491 31.2741 33.9573 31.7997 33.3014 31.7997Z" fill="white"/>
<path d="M44.787 29.5829H43.7917C43.1985 29.5829 42.7175 30.0566 42.7175 30.6409C42.7175 31.2253 43.1985 31.6989 43.7917 31.6989H44.787C45.3802 31.6989 45.8612 31.2253 45.8612 30.6409C45.8612 30.0566 45.3802 29.5829 44.787 29.5829Z" fill="white"/>
<path d="M22.8109 29.5571H21.8158C21.2226 29.5571 20.7415 30.0307 20.7415 30.6151C20.7415 31.1994 21.2226 31.6731 21.8158 31.6731H22.8109C23.4041 31.6731 23.8851 31.1994 23.8851 30.6151C23.8851 30.0307 23.4041 29.5571 22.8109 29.5571Z" fill="white"/>
<path d="M33.3145 21.3536C33.9077 21.3536 34.3887 20.8799 34.3887 20.2956V19.3154C34.3887 18.7311 33.9077 18.2574 33.3145 18.2574C32.7213 18.2574 32.2403 18.7311 32.2403 19.3154V20.2956C32.2403 20.8799 32.7213 21.3536 33.3145 21.3536Z" fill="white"/>
<path d="M33.2883 39.9024C32.6951 39.9024 32.214 40.376 32.214 40.9604V41.9406C32.214 42.5249 32.6951 42.9986 33.2883 42.9986C33.8815 42.9986 34.3625 42.5249 34.3625 41.9406V40.9604C34.3625 40.376 33.8815 39.9024 33.2883 39.9024Z" fill="white"/>
<path d="M1.07422 36.0984C0.791699 36.0984 0.51455 36.2116 0.314746 36.4084C0.114941 36.6051 0 36.8781 0 37.1564C0 37.4357 0.114834 37.7076 0.314746 37.9044C0.514658 38.1012 0.791699 38.2144 1.07422 38.2144C1.35674 38.2144 1.63389 38.1012 1.83358 37.9044C2.03339 37.7076 2.14844 37.4346 2.14844 37.1564C2.14844 36.8781 2.03349 36.6051 1.83358 36.4084C1.63389 36.2116 1.35674 36.0984 1.07422 36.0984Z" fill="white"/>
</svg>
