<svg width="51" height="50" viewBox="0 0 51 50" fill="none" xmlns="http://www.w3.org/2000/svg">
<path d="M34.0618 32.1499C32.8534 32.1499 31.8704 31.3059 31.8704 30.2684C31.8704 29.2309 32.8534 28.3868 34.0618 28.3868C35.2701 28.3868 36.2532 29.2309 36.2532 30.2684C36.2532 30.8141 36.6992 31.2566 37.2493 31.2566C37.7993 31.2566 38.2453 30.8141 38.2453 30.2684C38.2453 28.4576 36.8853 26.9351 35.0579 26.5219V26.008C35.0579 25.4623 34.6118 25.0198 34.0618 25.0198C33.5117 25.0198 33.0657 25.4623 33.0657 26.008V26.5219C31.2382 26.9351 29.8782 28.4576 29.8782 30.2684C29.8782 32.3956 31.7549 34.1262 34.0618 34.1262C35.2701 34.1262 36.2532 34.9703 36.2532 36.0078C36.2532 37.0454 35.2701 37.8894 34.0618 37.8894C32.8534 37.8894 31.8704 37.0454 31.8704 36.0078C31.8704 35.4622 31.4243 35.0197 30.8743 35.0197C30.3242 35.0197 29.8782 35.4622 29.8782 36.0078C29.8782 37.8186 31.2382 39.3411 33.0657 39.7544V40.1812C33.0657 40.7269 33.5117 41.1694 34.0618 41.1694C34.6118 41.1694 35.0579 40.7269 35.0579 40.1812V39.7544C36.8853 39.3411 38.2453 37.8186 38.2453 36.0078C38.2453 33.8806 36.3686 32.1499 34.0618 32.1499Z" fill="white"/>
<path d="M44.9718 26.2723C43.6706 24.2609 41.8374 22.6514 39.6704 21.618C39.1744 21.3815 38.5792 21.5886 38.341 22.0805C38.1026 22.5724 38.3113 23.1627 38.8071 23.3992C42.5834 25.2 45.0234 29.0477 45.0234 33.2016C45.0234 34.9791 44.5817 36.7418 43.7463 38.2995C43.4879 38.7812 43.6721 39.3797 44.1577 39.636C44.3068 39.7146 44.4669 39.752 44.6247 39.752C44.9811 39.752 45.3259 39.5617 45.505 39.2278C46.4932 37.3855 47.0155 35.3016 47.0155 33.2016C47.0155 30.7352 46.3088 28.3391 44.9718 26.2723Z" fill="white"/>
<path d="M35.6275 20.3559L35.5605 20.3558C35.0104 20.3558 34.5644 20.7982 34.5644 21.3439C34.5644 21.8897 35.0104 22.3321 35.5605 22.3321L35.6182 22.3322C35.6197 22.3322 35.6212 22.3322 35.6229 22.3322C36.1709 22.3322 36.6163 21.8928 36.6189 21.3487C36.6214 20.8029 36.1776 20.3585 35.6275 20.3559Z" fill="white"/>
<path d="M29.3256 43.0041C25.5495 41.2032 23.1095 37.3555 23.1095 33.2016C23.1095 31.4241 23.5512 29.6614 24.3866 28.1037C24.645 27.622 24.4608 27.0236 23.9751 26.7672C23.4896 26.5109 22.8862 26.6936 22.6279 27.1754C21.6397 29.0178 21.1173 31.1016 21.1173 33.2016C21.1173 35.668 21.8241 38.0641 23.1611 40.1309C24.4623 42.1423 26.2955 43.7518 28.4625 44.7853C28.6017 44.8517 28.7487 44.883 28.8934 44.883C29.2644 44.883 29.6204 44.6766 29.7919 44.3228C30.0301 43.8309 29.8215 43.2405 29.3256 43.0041Z" fill="white"/>
<path d="M32.5724 44.0712L32.5147 44.071C31.9621 44.07 31.5166 44.5086 31.5142 45.0545C31.5116 45.6002 31.9556 46.0447 32.5057 46.0472L32.5724 46.0474C33.1224 46.0474 33.5685 45.6049 33.5685 45.0593C33.5685 44.5136 33.1224 44.0712 32.5724 44.0712Z" fill="white"/>
<path d="M38.5895 17.0126C38.4683 16.7261 38.3198 16.456 38.1469 16.2055H40.7402C43.2666 16.2055 45.3222 14.1664 45.3222 11.6601C45.3222 9.15374 43.2666 7.11461 40.7402 7.11461H32.7635C33.2706 6.38319 33.5683 5.49831 33.5683 4.54545C33.5683 2.03913 31.5128 0 28.9863 0H4.58202C2.05554 0 0 2.03913 0 4.54545C0 7.05176 2.05554 9.09089 4.58202 9.09089H12.5587C12.0516 9.82231 11.7539 10.7072 11.7539 11.6601C11.7539 12.6129 12.0515 13.4978 12.5587 14.2292H9.96092C7.43443 14.2292 5.3789 16.2683 5.3789 18.7747C5.3789 20.2141 6.05763 21.4986 7.11359 22.332C6.05763 23.1654 5.3789 24.4499 5.3789 25.8893C5.3789 27.3287 6.05763 28.6132 7.11359 29.4466C6.05763 30.28 5.3789 31.5645 5.3789 33.0039C5.3789 34.4433 6.05763 35.7278 7.11359 36.5612C6.05763 37.3946 5.3789 38.6791 5.3789 40.1185C5.3789 42.6248 7.43443 44.6639 9.96092 44.6639H21.6999C24.7923 47.9453 29.1917 50 34.0664 50C43.4036 50 51 42.4642 51 33.2016C51 25.4924 45.7377 18.9805 38.5895 17.0126ZM40.7402 9.09089C42.1683 9.09089 43.33 10.2435 43.33 11.6601C43.33 13.0767 42.1683 14.2292 40.7402 14.2292H16.3359C14.9078 14.2292 13.7461 13.0767 13.7461 11.6601C13.7461 10.2435 14.9078 9.09089 16.3359 9.09089H40.7402ZM4.58202 7.11461C3.15393 7.11461 1.99218 5.96204 1.99218 4.54545C1.99218 3.12885 3.15393 1.97628 4.58202 1.97628H28.9863C30.4144 1.97628 31.5761 3.12885 31.5761 4.54545C31.5761 5.96204 30.4144 7.11461 28.9863 7.11461H4.58202ZM9.96092 16.2055H34.3652C34.7664 16.2055 35.1506 16.298 35.4952 16.4636C35.0241 16.4244 34.5478 16.4032 34.0664 16.4032C29.3903 16.4032 25.1509 18.2934 22.0836 21.3438H9.96092C8.53292 21.3438 7.37108 20.1913 7.37108 18.7747C7.37108 17.3581 8.53292 16.2055 9.96092 16.2055ZM9.96092 23.3201H20.3815C19.2508 24.857 18.3765 26.5904 17.8213 28.4584H9.96092C8.53282 28.4584 7.37108 27.306 7.37108 25.8893C7.37108 24.4727 8.53282 23.3201 9.96092 23.3201ZM9.96092 30.4347H17.3639C17.2128 31.3352 17.1329 32.2592 17.1329 33.2016C17.1329 34.0066 17.1916 34.7981 17.3024 35.5731H9.96092C8.53282 35.5731 7.37108 34.4206 7.37108 33.0039C7.37108 31.5872 8.53282 30.4347 9.96092 30.4347ZM9.96092 42.6877C8.53282 42.6877 7.37108 41.5352 7.37108 40.1185C7.37108 38.7018 8.53282 37.5493 9.96092 37.5493H17.7091C18.2117 39.4083 19.0282 41.1408 20.099 42.6877H9.96092ZM34.0664 48.0237C25.8278 48.0237 19.1251 41.3745 19.1251 33.2016C19.1251 25.0287 25.8278 18.3795 34.0664 18.3795C42.3051 18.3795 49.0078 25.0287 49.0078 33.2016C49.0078 41.3745 42.3051 48.0237 34.0664 48.0237Z" fill="white"/>
</svg>
