<svg width="27" height="27" viewBox="0 0 27 27" fill="none" xmlns="http://www.w3.org/2000/svg">
<path d="M8.85802 18.566C9.96998 20.1602 11.0801 21.5861 11.8159 22.5045C11.923 22.6381 12.0234 22.7621 12.1205 22.8815H9.90026C9.65173 22.8815 9.45028 23.0863 9.45028 23.3391C9.45028 23.5918 9.65173 23.7966 9.90026 23.7966H17.1002C17.3488 23.7966 17.5502 23.5918 17.5502 23.3391C17.5502 23.0863 17.3488 22.8815 17.1002 22.8815H14.8799C14.9771 22.7621 15.0775 22.638 15.1851 22.5045C15.9203 21.5893 17.0301 20.1602 18.1425 18.566C19.2461 17.016 20.2396 15.3879 21.1152 13.6941C22.0341 11.8591 22.5003 10.3358 22.5003 9.16625C22.5033 6.73596 21.555 4.4044 19.8646 2.6863C19.7517 2.56726 19.5844 2.51942 19.4271 2.5612C19.2697 2.60297 19.1467 2.7278 19.1055 2.88776C19.0642 3.04772 19.1109 3.21787 19.2278 3.33284C20.7493 4.87956 21.603 6.97845 21.6003 9.16619C21.6003 10.1903 21.1674 11.574 20.3133 13.2785C19.4575 14.9331 18.4866 16.5235 17.4081 18.0375C16.311 19.6111 15.2143 21.021 14.4876 21.927C14.246 22.2281 14.0286 22.4944 13.8432 22.7195C13.7566 22.82 13.6317 22.8776 13.5003 22.8776C13.3689 22.8776 13.244 22.82 13.1574 22.7195C12.972 22.4944 12.7547 22.2281 12.513 21.927C11.7863 21.0214 10.6896 19.6116 9.5925 18.0375C8.51403 16.5235 7.54313 14.9331 6.6873 13.2785C5.83232 11.574 5.40032 10.1903 5.40032 9.16619C5.40005 5.85176 7.34933 2.85859 10.3504 1.56519C12.3668 0.705385 14.6384 0.705385 16.6549 1.56519C16.803 1.629 16.9732 1.60771 17.1016 1.50921C17.2301 1.41075 17.297 1.2501 17.2774 1.08778C17.2577 0.925457 17.1544 0.786143 17.0063 0.722331C12.4238 -1.24309 7.14198 0.94015 5.20773 5.5993C4.73866 6.72787 4.49808 7.941 4.50035 9.16619C4.50035 10.3358 4.96658 11.8591 5.88548 13.6963C6.76098 15.3894 7.75444 17.0168 8.85802 18.566Z" fill="white"/>
<path d="M13.5002 5.03556C13.7487 5.03556 13.9502 4.83071 13.9502 4.57798C13.9502 4.32526 13.7487 4.12041 13.5002 4.12041C11.3534 4.12036 9.50544 5.66247 9.08657 7.80356C8.6677 9.94465 9.79458 12.0884 11.778 12.9239C13.7614 13.7593 16.049 13.0537 17.2417 11.2386C18.4345 9.42348 18.2002 7.00435 16.6821 5.46068C16.5691 5.34175 16.4019 5.29402 16.2445 5.3359C16.0872 5.37778 15.9643 5.50273 15.9231 5.66269C15.8819 5.8227 15.9289 5.99279 16.0458 6.10771C17.2603 7.34261 17.4478 9.27784 16.4937 10.73C15.5395 12.1821 13.7095 12.7466 12.1228 12.0784C10.536 11.4101 9.63448 9.69514 9.96945 7.98223C10.3044 6.26933 11.7827 5.03561 13.5002 5.03556Z" fill="white"/>
<path d="M26.8306 24.9732L24.0631 19.9397C23.8129 19.4925 23.3446 19.2176 22.8386 19.2208H19.6315C19.3829 19.2208 19.1815 19.4256 19.1815 19.6784C19.1815 19.9311 19.3829 20.1359 19.6315 20.1359H22.8386C23.0188 20.1324 23.1868 20.2279 23.2783 20.3858L26.0449 25.4193C26.1203 25.5502 26.1187 25.7127 26.0408 25.8421C25.9489 25.9965 25.7827 26.089 25.6052 26.0846H1.39518C1.21789 26.0889 1.05188 25.9964 0.960015 25.8421C0.882178 25.7127 0.880649 25.5502 0.955954 25.4193L3.72257 20.3858C3.81385 20.228 3.98176 20.1325 4.16174 20.1359H7.3689C7.61744 20.1359 7.81888 19.9311 7.81888 19.6784C7.81888 19.4256 7.61744 19.2208 7.3689 19.2208H4.16179C3.65554 19.2174 3.18694 19.4923 2.93645 19.9397L0.169365 24.9732C-0.0613483 25.3876 -0.0560221 25.8959 0.18334 26.3053C0.435517 26.7411 0.897946 27.0062 1.39518 26.9999H25.6052C26.1023 27.006 26.5646 26.741 26.8167 26.3053C27.056 25.8959 27.0614 25.3876 26.8306 24.9732Z" fill="white"/>
<path d="M22.0503 21.5088H20.2503C20.1614 21.5089 20.0746 21.5356 20.0005 21.5857L18.6505 22.5009C18.4437 22.6411 18.3879 22.9253 18.5258 23.1355C18.6638 23.3458 18.9432 23.4025 19.15 23.2623L20.3853 22.424H22.0503C22.2988 22.424 22.5002 22.2191 22.5002 21.9664C22.5002 21.7136 22.2988 21.5088 22.0503 21.5088Z" fill="white"/>
<path d="M19.3502 24.7119C19.3502 24.9646 19.5517 25.1694 19.8002 25.1694H23.4003C23.6488 25.1694 23.8502 24.9646 23.8502 24.7119C23.8502 24.4591 23.6488 24.2543 23.4003 24.2543H19.8002C19.5517 24.2543 19.3502 24.4591 19.3502 24.7119Z" fill="white"/>
<path d="M8.10017 23.3391C8.29856 23.3394 8.47369 23.2075 8.53133 23.0144C8.58897 22.8214 8.51545 22.6127 8.3504 22.5008L7.00039 21.5856C6.92625 21.5355 6.83918 21.5088 6.75017 21.5087H4.95018C4.70164 21.5087 4.50019 21.7136 4.50019 21.9663C4.50019 22.219 4.70169 22.4239 4.95018 22.4239H6.61516L7.85179 23.2622C7.92535 23.3121 8.01179 23.3389 8.10017 23.3391Z" fill="white"/>
<path d="M3.60017 24.2543C3.35163 24.2543 3.15019 24.4591 3.15019 24.7119C3.15019 24.9646 3.35163 25.1694 3.60017 25.1694H7.2002C7.44874 25.1694 7.65019 24.9646 7.65019 24.7119C7.65019 24.4591 7.44874 24.2543 7.2002 24.2543H3.60017Z" fill="white"/>
</svg>
