<svg width="320" height="338" viewBox="0 0 320 338" fill="none" xmlns="http://www.w3.org/2000/svg">
<path opacity="0.05" d="M161.632 0.00480327C199.965 -0.110593 233.218 13.1602 261.967 38.0858C291.41 63.8191 309.768 96.0145 316.927 134.557C318.312 142.288 319.12 150.251 319.467 158.098C319.929 168.83 320.39 179.677 319.467 190.409C316.234 230.22 303.187 266.108 274.553 294.957C254.232 315.498 229.408 327.615 201.12 333.154C187.495 335.808 173.871 337.885 160.016 338C154.589 338 149.047 337.423 143.736 336.269C131.728 333.615 119.72 330.962 108.059 327.153C84.2737 319.537 65.6844 304.651 51.2518 284.341C47.788 279.379 43.2852 275.225 39.475 270.494C23.0796 250.415 10.9562 228.143 4.49044 202.872C0.680243 188.101 -0.705114 173.099 0.334031 157.752C1.25771 144.135 3.10505 130.749 6.79979 117.594C12.4574 97.5146 20.8858 78.7051 33.3556 61.7418C54.023 33.7006 81.3871 15.3525 114.871 6.12079C130.111 1.85113 145.814 -0.110593 161.632 0.00480327ZM129.419 81.9362C129.419 82.167 129.534 82.2822 129.534 82.513C128.957 82.8592 128.38 83.3209 127.687 83.667C118.797 88.8599 110.714 94.8605 103.44 102.131C96.2816 109.285 89.5848 116.786 82.4263 123.941C59.5651 146.904 49.0582 174.946 47.4418 206.795C46.9799 216.373 48.0191 225.835 49.6355 235.298C50.9056 242.222 52.8685 248.684 57.6023 254.107C60.7198 257.685 63.3752 261.493 66.4927 265.07C81.2716 282.38 98.7061 296.227 119.489 305.92C122.376 307.305 125.378 309.036 128.38 309.036C136.346 309.152 144.429 308.574 152.395 307.997C159.554 307.42 166.482 305.343 173.756 305.689C199.157 306.959 221.556 298.997 240.838 282.38C244.533 279.149 248.228 275.456 250.768 271.186C260.582 254.8 265.662 236.913 266.817 217.873C267.394 209.68 267.394 201.371 267.625 193.063C268.318 175.869 266.24 159.021 261.159 142.519C259.774 137.903 258.157 133.403 256.541 128.787C269.703 146.673 277.093 166.752 280.21 188.678C280.326 184.523 280.557 180.485 280.326 176.446C278.594 147.943 267.509 123.71 247.188 103.631C243.263 99.8226 239.106 96.3607 235.181 92.4373C228.946 86.0905 223.288 79.1667 216.707 73.2815C200.773 59.3185 182.415 49.9715 161.286 46.625C158.63 46.1634 155.975 45.8171 153.319 45.4709C153.781 45.0093 154.243 44.7786 154.705 44.7786C170.407 42.0091 186.225 41.7783 202.044 44.0862C206.431 44.7786 211.165 45.3557 214.975 47.4328C232.525 57.0107 247.419 69.7043 259.658 85.6289C277.439 108.824 286.676 135.365 288.408 164.329C289.562 182.1 287.831 199.756 283.212 217.065C281.019 225.489 279.056 234.029 277.093 242.568C278.017 242.106 278.478 241.413 278.94 240.721C281.942 234.951 285.29 229.297 288.061 223.412C296.028 205.871 300.416 187.524 301.109 168.253C301.57 154.867 300.647 141.711 296.721 128.903C290.255 107.785 279.287 89.0908 265.085 72.2429C263.007 69.8196 260.813 67.3963 258.388 64.6267C259.196 64.6267 259.543 64.6267 260.005 64.6267C260.12 64.5113 260.236 64.2805 260.351 64.1651C257.695 61.6263 255.04 59.2031 252.5 56.6644C243.032 47.6635 231.832 41.2013 220.517 35.0853C201.581 24.8151 181.722 19.3914 160.016 20.5453C144.198 21.4685 129.072 25.5075 114.64 31.5081C89.7004 42.0091 69.8412 59.2033 54.3695 81.3593C52.6376 83.898 50.9056 86.5521 48.9428 88.86C40.8606 98.0917 33.8174 108.016 28.2753 118.978C17.1911 140.673 12.2262 163.868 11.9953 188.101C11.9953 194.101 11.9952 200.448 13.7271 206.103C18.5765 222.143 25.5043 237.259 34.1639 251.684C34.5103 252.261 34.9722 252.838 35.3185 253.415C32.432 243.376 30.2382 233.22 29.0836 222.835C27.929 212.911 28.16 194.909 29.5455 191.909C30.1228 194.332 30.5845 196.755 31.1618 199.063C31.7391 201.371 32.432 203.564 32.7784 205.295C33.5866 195.948 33.8175 186.139 35.203 176.561C36.5885 166.983 38.436 157.405 41.4379 148.173C45.4791 135.595 53.792 125.325 62.9134 115.863C80.117 97.9763 101.131 87.3599 125.378 82.3979C126.994 82.2825 128.264 82.167 129.419 81.9362Z" fill="white"/>
</svg>
