<svg width="24" height="25" viewBox="0 0 24 25" fill="none" xmlns="http://www.w3.org/2000/svg">
<path d="M12.1224 0.000355272C14.9974 -0.00817995 17.4913 0.973386 19.6475 2.81699C21.8557 4.72035 23.2326 7.10166 23.7695 9.95243C23.8734 10.5243 23.934 11.1132 23.96 11.6936C23.9946 12.4874 24.0293 13.2897 23.96 14.0835C23.7175 17.0281 22.739 19.6826 20.5915 21.8164C19.0674 23.3356 17.2056 24.2318 15.084 24.6415C14.0622 24.8378 13.0403 24.9915 12.0012 25C11.5942 25 11.1785 24.9574 10.7802 24.872C9.87959 24.6757 8.979 24.4794 8.10439 24.1977C6.32053 23.6344 4.92633 22.5334 3.84389 21.0312C3.5841 20.6641 3.24639 20.3569 2.96062 20.0069C1.73097 18.5218 0.821717 16.8745 0.336783 15.0053C0.0510182 13.9128 -0.0528835 12.8032 0.0250523 11.668C0.0943286 10.6609 0.232879 9.67076 0.509984 8.69775C0.934302 7.21262 1.56644 5.82138 2.50167 4.5667C4.05172 2.49265 6.10403 1.13554 8.6153 0.452721C9.75836 0.136918 10.9361 -0.00817995 12.1224 0.000355272ZM9.70641 6.06037C9.70641 6.07744 9.71508 6.08596 9.71508 6.10303C9.67178 6.12864 9.62848 6.16279 9.57652 6.18839C8.90974 6.57248 8.30357 7.01631 7.75801 7.55403C7.22112 8.08322 6.71886 8.63802 6.18197 9.1672C4.46738 10.8657 3.67937 12.9398 3.55813 15.2955C3.52349 16.0039 3.60143 16.7038 3.72267 17.4037C3.81792 17.9158 3.96513 18.3938 4.32018 18.7949C4.55398 19.0595 4.75314 19.3412 4.98695 19.6058C6.09537 20.8861 7.40296 21.9103 8.96168 22.6272C9.17816 22.7297 9.40333 22.8577 9.62848 22.8577C10.226 22.8662 10.8321 22.8235 11.4297 22.7809C11.9665 22.7382 12.4861 22.5845 13.0317 22.6101C14.9368 22.704 16.6167 22.1151 18.0629 20.8861C18.34 20.6471 18.6171 20.3739 18.8076 20.0581C19.5437 18.8461 19.9247 17.5232 20.0113 16.1149C20.0546 15.5089 20.0546 14.8943 20.0719 14.2798C20.1238 13.008 19.968 11.7619 19.5869 10.5414C19.483 10.2 19.3618 9.86707 19.2406 9.52567C20.2278 10.8486 20.782 12.3338 21.0158 13.9554C21.0244 13.6482 21.0418 13.3494 21.0244 13.0507C20.8945 10.9425 20.0632 9.15012 18.5391 7.66499C18.2447 7.38333 17.933 7.12727 17.6386 6.83708C17.1709 6.36764 16.7466 5.85552 16.253 5.42023C15.058 4.38746 13.6811 3.69611 12.0965 3.44859C11.8973 3.41445 11.6981 3.38884 11.4989 3.36323C11.5336 3.32909 11.5682 3.31203 11.6029 3.31203C12.7805 3.10718 13.9669 3.09011 15.1533 3.26082C15.4823 3.31203 15.8374 3.35471 16.1231 3.50835C17.4394 4.21677 18.5565 5.15564 19.4744 6.3335C20.8079 8.04908 21.5007 10.0122 21.6306 12.1545C21.7172 13.469 21.5873 14.7748 21.2409 16.0551C21.0764 16.6782 20.9292 17.3098 20.782 17.9414C20.8512 17.9073 20.8859 17.856 20.9205 17.8048C21.1456 17.3781 21.3968 16.9598 21.6046 16.5245C22.2021 15.2272 22.5312 13.8701 22.5831 12.4447C22.6178 11.4546 22.5485 10.4816 22.2541 9.53421C21.7691 7.97226 20.9465 6.58955 19.8814 5.34341C19.7255 5.16417 19.561 4.98493 19.3791 4.78008C19.4397 4.78008 19.4657 4.78008 19.5003 4.78008C19.509 4.77155 19.5177 4.75447 19.5263 4.74594C19.3272 4.55816 19.128 4.37893 18.9375 4.19115C18.2274 3.52541 17.3874 3.04744 16.5388 2.59507C15.1186 1.83544 13.6292 1.43427 12.0012 1.51962C10.8148 1.58791 9.68043 1.88665 8.59799 2.33048C6.72753 3.10719 5.23809 4.37894 4.07771 6.0177C3.94782 6.20548 3.81792 6.40178 3.67071 6.57249C3.06454 7.2553 2.5363 7.98932 2.12065 8.80017C1.28933 10.4048 0.916967 12.1204 0.899648 13.9128C0.899648 14.3566 0.899642 14.826 1.02954 15.2443C1.39324 16.4307 1.91283 17.5488 2.56229 18.6157C2.58827 18.6583 2.62291 18.701 2.64889 18.7437C2.4324 18.0012 2.26786 17.25 2.18127 16.4819C2.09467 15.7478 2.112 14.4163 2.21591 14.1944C2.25921 14.3737 2.29384 14.5529 2.33713 14.7236C2.38043 14.8943 2.4324 15.0565 2.45838 15.1845C2.519 14.4932 2.53631 13.7677 2.64022 13.0593C2.74414 12.3508 2.8827 11.6424 3.10785 10.9596C3.41093 10.0292 4.0344 9.26961 4.71851 8.56972C6.00878 7.24677 7.58482 6.46153 9.40332 6.09452C9.52455 6.08598 9.61982 6.07744 9.70641 6.06037Z" fill="#57E964"/>
</svg>
