<svg width="28" height="30" viewBox="0 0 28 30" fill="none" xmlns="http://www.w3.org/2000/svg">
<path d="M13.9989 0.000416242C17.3189 -0.00958376 20.1989 1.14043 22.6889 3.30043C25.2389 5.53043 26.8289 8.32042 27.4489 11.6604C27.5689 12.3304 27.6389 13.0204 27.6689 13.7004C27.7089 14.6304 27.7489 15.5704 27.6689 16.5004C27.3889 19.9504 26.2589 23.0604 23.7789 25.5604C22.0189 27.3404 19.8689 28.3904 17.4189 28.8704C16.2389 29.1004 15.0589 29.2804 13.8589 29.2904C13.3889 29.2904 12.9089 29.2404 12.4489 29.1404C11.4089 28.9104 10.3689 28.6805 9.35892 28.3505C7.29892 27.6905 5.6889 26.4004 4.4389 24.6404C4.1389 24.2104 3.74891 23.8504 3.41891 23.4404C1.99891 21.7004 0.948916 19.7704 0.388916 17.5804C0.0589156 16.3004 -0.0610697 15.0004 0.0289303 13.6704C0.10893 12.4904 0.268928 11.3304 0.588928 10.1904C1.07893 8.45042 1.80892 6.82042 2.88892 5.35042C4.67892 2.92042 7.04891 1.33042 9.94891 0.530415C11.2689 0.160415 12.6289 -0.00958376 13.9989 0.000416242ZM11.2089 7.10042C11.2089 7.12042 11.2189 7.13041 11.2189 7.15041C11.1689 7.18041 11.1189 7.22042 11.0589 7.25042C10.2889 7.70042 9.58892 8.22042 8.95892 8.85042C8.33892 9.47042 7.75892 10.1204 7.13892 10.7404C5.15892 12.7304 4.24892 15.1604 4.10892 17.9204C4.06892 18.7504 4.15892 19.5704 4.29892 20.3904C4.40892 20.9904 4.57892 21.5504 4.98892 22.0204C5.25892 22.3304 5.48891 22.6604 5.75891 22.9704C7.03891 24.4704 8.54891 25.6704 10.3489 26.5104C10.5989 26.6304 10.8589 26.7804 11.1189 26.7804C11.8089 26.7904 12.5089 26.7404 13.1989 26.6904C13.8189 26.6404 14.4189 26.4604 15.0489 26.4904C17.2489 26.6004 19.1889 25.9104 20.8589 24.4704C21.1789 24.1904 21.4989 23.8704 21.7189 23.5004C22.5689 22.0804 23.0089 20.5304 23.1089 18.8804C23.1589 18.1704 23.1589 17.4504 23.1789 16.7304C23.2389 15.2404 23.0589 13.7804 22.6189 12.3504C22.4989 11.9504 22.3589 11.5604 22.2189 11.1604C23.3589 12.7104 23.9989 14.4504 24.2689 16.3504C24.2789 15.9904 24.2989 15.6404 24.2789 15.2904C24.1289 12.8204 23.1689 10.7204 21.4089 8.98043C21.0689 8.65043 20.7089 8.35043 20.3689 8.01043C19.8289 7.46043 19.3389 6.86042 18.7689 6.35042C17.3889 5.14042 15.7989 4.33042 13.9689 4.04042C13.7389 4.00042 13.5089 3.97042 13.2789 3.94042C13.3189 3.90042 13.3589 3.88042 13.3989 3.88042C14.7589 3.64042 16.1289 3.62042 17.4989 3.82042C17.8789 3.88042 18.2889 3.93043 18.6189 4.11043C20.1389 4.94043 21.4289 6.04043 22.4889 7.42043C24.0289 9.43043 24.8289 11.7304 24.9789 14.2404C25.0789 15.7804 24.9289 17.3104 24.5289 18.8104C24.3389 19.5404 24.1689 20.2804 23.9989 21.0204C24.0789 20.9804 24.1189 20.9204 24.1589 20.8604C24.4189 20.3604 24.7089 19.8704 24.9489 19.3604C25.6389 17.8404 26.0189 16.2504 26.0789 14.5804C26.1189 13.4204 26.0389 12.2804 25.6989 11.1704C25.1389 9.34043 24.1889 7.72043 22.9589 6.26043C22.7789 6.05043 22.5889 5.84042 22.3789 5.60042C22.4489 5.60042 22.4789 5.60042 22.5189 5.60042C22.5289 5.59042 22.5389 5.57041 22.5489 5.56041C22.3189 5.34041 22.0889 5.13042 21.8689 4.91042C21.0489 4.13042 20.0789 3.57042 19.0989 3.04042C17.4589 2.15042 15.7389 1.68042 13.8589 1.78042C12.4889 1.86042 11.1789 2.21043 9.92892 2.73043C7.76892 3.64043 6.04892 5.13043 4.70892 7.05043C4.55892 7.27043 4.40892 7.50043 4.23892 7.70043C3.53892 8.50043 2.92891 9.36041 2.44891 10.3104C1.48891 12.1904 1.05891 14.2004 1.03891 16.3004C1.03891 16.8204 1.0389 17.3704 1.1889 17.8604C1.6089 19.2504 2.20892 20.5604 2.95892 21.8104C2.98892 21.8604 3.02893 21.9104 3.05893 21.9604C2.80893 21.0904 2.61892 20.2104 2.51892 19.3104C2.41892 18.4504 2.43893 16.8904 2.55893 16.6304C2.60893 16.8404 2.64891 17.0504 2.69891 17.2504C2.74891 17.4504 2.80893 17.6404 2.83893 17.7904C2.90893 16.9804 2.92892 16.1304 3.04892 15.3004C3.16892 14.4704 3.32893 13.6404 3.58893 12.8404C3.93893 11.7504 4.65891 10.8604 5.44891 10.0404C6.93891 8.49042 8.75892 7.57043 10.8589 7.14043C10.9989 7.13043 11.1089 7.12042 11.2089 7.10042Z" fill="#57E964"/>
</svg>
