<svg width="55" height="55" viewBox="0 0 55 55" fill="none" xmlns="http://www.w3.org/2000/svg">
<path d="M53.9257 41.1426C53.4703 41.1426 53.0559 40.8431 52.9093 40.4132C52.7672 39.9961 52.9025 39.517 53.2445 39.2382C53.5991 38.9492 54.1041 38.9169 54.4931 39.1568C54.8686 39.3883 55.0672 39.8455 54.9794 40.2778C54.879 40.7737 54.4331 41.1426 53.9257 41.1426Z" fill="white"/>
<path d="M12.051 34.3181C8.29145 34.3181 5.23275 31.2594 5.23275 27.5C5.23275 23.7406 8.29145 20.6819 12.051 20.6819C15.8105 20.6819 18.8692 23.7406 18.8692 27.5C18.8692 31.2594 15.8105 34.3181 12.051 34.3181ZM12.051 22.8304C9.47602 22.8304 7.38124 24.9251 7.38124 27.5C7.38124 30.0749 9.47602 32.1696 12.051 32.1696C14.6259 32.1696 16.7207 30.0749 16.7207 27.5C16.7207 24.9251 14.6259 22.8304 12.051 22.8304Z" fill="white"/>
<path d="M53.4937 43.9085C52.9351 43.7085 52.3201 43.9983 52.1197 44.5566C51.523 46.2189 50.5856 47.7258 49.3699 48.9923C48.7081 47.0291 47.093 45.5004 45.0777 44.9594C46.3483 43.7209 47.1384 41.9916 47.1384 40.0815C47.1384 36.324 44.0814 33.2671 40.3238 33.2671C36.5663 33.2671 33.5093 36.324 33.5093 40.0815C33.5093 41.9917 34.2995 43.7209 35.5701 44.9594C33.5541 45.5006 31.9387 47.0299 31.2771 48.994C29.0451 46.6758 27.7948 43.6035 27.7948 40.3228C27.7948 33.414 33.4152 27.793 40.3237 27.793C45.4538 27.793 50.0135 30.8652 51.9404 35.6196C52.1631 36.1693 52.7891 36.4348 53.3394 36.2117C53.8892 35.9889 54.1543 35.3625 53.9315 34.8127C52.8466 32.1358 51.0103 29.8538 48.6206 28.2134C46.1727 26.5328 43.3036 25.6446 40.3237 25.6446C34.5995 25.6446 29.6301 28.9387 27.2114 33.7308L23.3375 31.7246C23.8315 30.4093 24.1018 28.9856 24.1018 27.4999C24.1018 24.1404 22.7197 21.0974 20.4944 18.9099L24.1735 15.9687C25.8551 17.617 28.157 18.6347 30.6921 18.6347C35.8298 18.6347 40.0096 14.4549 40.0096 9.31734C40.0096 4.17979 35.8301 0 30.6924 0C25.5546 0 21.3748 4.17979 21.3748 9.31734C21.3748 11.1482 21.9057 12.8574 22.8216 14.2992L18.7954 17.5178C16.8695 16.2125 14.5477 15.4493 12.051 15.4493C5.40614 15.4493 0 20.8553 0 27.5C0 34.1447 5.40603 39.5507 12.051 39.5507C16.4463 39.5507 20.2995 37.1855 22.4048 33.661L26.3848 35.7222C25.9058 37.1699 25.6465 38.7167 25.6465 40.3228C25.6465 44.9109 27.7333 49.1506 31.3718 51.9546C31.374 51.9562 31.3761 51.9578 31.3783 51.9594C33.9626 53.9487 37.0557 55 40.3239 55C43.5922 55 46.6854 53.9487 49.2697 51.9594C49.2718 51.9578 49.274 51.9562 49.276 51.9546C51.5106 50.2326 53.1932 47.9254 54.1419 45.2825C54.3424 44.7241 54.052 44.1089 53.4937 43.9085ZM30.6924 2.14844C34.6454 2.14844 37.8613 5.36443 37.8613 9.31734C37.8613 13.2703 34.6453 16.4863 30.6924 16.4863C26.7392 16.4863 23.5233 13.2703 23.5233 9.31734C23.5233 5.36443 26.7393 2.14844 30.6924 2.14844ZM12.051 37.4023C6.59081 37.4023 2.14849 32.96 2.14849 27.5C2.14849 22.04 6.59081 17.5977 12.051 17.5977C17.5112 17.5977 21.9535 22.04 21.9535 27.5C21.9535 32.96 17.5112 37.4023 12.051 37.4023ZM40.3239 35.4156C42.8967 35.4156 44.99 37.5087 44.99 40.0816C44.99 42.6544 42.8968 44.7475 40.3239 44.7475C37.751 44.7475 35.6579 42.6544 35.6579 40.0816C35.6579 37.5087 37.751 35.4156 40.3239 35.4156ZM40.3239 52.8516C37.7144 52.8516 35.2359 52.0666 33.1215 50.5759C33.3243 48.5129 35.0691 46.8958 37.1846 46.8958H43.4633C45.5787 46.8958 47.3236 48.5129 47.5262 50.5759C45.4121 52.0666 42.9336 52.8516 40.3239 52.8516Z" fill="white"/>
</svg>
