<svg width="55" height="55" viewBox="0 0 55 55" fill="none" xmlns="http://www.w3.org/2000/svg">
<path d="M14.0931 17.3077C13.6548 17.3077 13.2526 17.0342 13.0912 16.6287C12.9258 16.2128 13.0436 15.7212 13.3821 15.4261C13.7252 15.1269 14.2371 15.0762 14.6319 15.3039C15.0269 15.5318 15.241 15.9967 15.1507 16.444C15.0508 16.9401 14.6008 17.3077 14.0931 17.3077Z" fill="white"/>
<path d="M33.799 39.3657C33.3486 39.3657 32.9371 39.0769 32.7842 38.6551C32.6357 38.2454 32.757 37.7704 33.0877 37.484C33.4386 37.1802 33.9529 37.1352 34.3524 37.3709C34.7256 37.5911 34.9328 38.0333 34.8637 38.4597C34.7804 38.9739 34.3229 39.3657 33.799 39.3657Z" fill="white"/>
<path d="M54.9326 7.98554C54.7861 7.59184 54.4226 7.31931 54.0022 7.28805L48.1239 6.84999L47.6842 0.994129C47.6528 0.575401 47.3794 0.213284 46.9842 0.0671905C46.5888 -0.07901 46.1446 0.0177766 45.8466 0.314689L41.148 4.99557C40.3696 5.77083 39.919 6.80122 39.8788 7.89703C39.8781 7.91647 39.8779 7.93591 39.8783 7.95536L39.9423 11.5419C35.728 8.14667 30.367 6.11082 24.5375 6.11082C11.0075 6.11082 0 17.0766 0 30.5554C0 44.0342 11.0075 55 24.5375 55C38.0675 55 49.0748 44.0342 49.0748 30.5554C49.0748 24.6548 46.9653 19.2358 43.4582 15.0076L47.0164 15.0648C47.0222 15.0649 47.0279 15.0649 47.0337 15.0649C47.0469 15.0649 47.06 15.0647 47.0732 15.0642C48.1729 15.0241 49.2072 14.5751 49.9855 13.7997L54.6842 9.11884C54.9822 8.82192 55.0792 8.37913 54.9326 7.98554ZM42.6729 6.51473L45.7092 3.48985L46.0059 7.44145L42.0955 11.3434L42.035 7.94912C42.0613 7.40729 42.2872 6.89887 42.6729 6.51473ZM24.5375 52.8514C12.1965 52.8514 2.15649 42.8494 2.15649 30.5552C2.15649 18.261 12.1964 8.25904 24.5375 8.25904C30.2703 8.25904 35.5063 10.4177 39.4703 13.9616L36.973 16.4495C33.6514 13.5398 29.2977 11.773 24.5375 11.773C22.3449 11.773 20.1951 12.1466 18.1476 12.8834C17.5875 13.0849 17.2975 13.7007 17.4998 14.2587C17.7022 14.8167 18.3198 15.106 18.8803 14.9041C20.692 14.2521 22.5953 13.9214 24.5375 13.9214C28.703 13.9214 32.5172 15.4491 35.4453 17.9713L32.9438 20.4634C30.6615 18.5733 27.7304 17.4353 24.5375 17.4353C17.2756 17.4353 11.3677 23.3209 11.3677 30.5552C11.3677 37.7895 17.2756 43.6751 24.5375 43.6751C26.6129 43.6751 28.6821 43.1792 30.5214 42.2411C31.0515 41.9708 31.2611 41.3235 30.9898 40.7955C30.7184 40.2673 30.0685 40.0587 29.5386 40.3288C27.9802 41.1237 26.2975 41.5268 24.5375 41.5268C18.4648 41.5268 13.5242 36.6051 13.5242 30.5553C13.5242 24.5055 18.4647 19.5838 24.5375 19.5838C27.1356 19.5838 29.5261 20.4853 31.4115 21.9901L28.8962 24.4959C27.6677 23.6164 26.1624 23.0977 24.5376 23.0977C20.4099 23.0977 17.0517 26.4431 17.0517 30.5552C17.0517 34.6673 20.4099 38.0127 24.5376 38.0127C28.6652 38.0127 32.0234 34.6673 32.0234 30.5552C32.0234 28.8352 31.4355 27.2494 30.4498 25.9864L32.9559 23.4898C34.5739 25.4 35.5508 27.8659 35.5508 30.5551C35.5508 31.7349 35.3631 32.896 34.9929 34.006C34.8052 34.569 35.1112 35.1771 35.6763 35.3641C36.2409 35.551 36.8517 35.2465 37.0395 34.6834C37.4825 33.3545 37.7072 31.9655 37.7072 30.5551C37.7072 27.2734 36.4915 24.2693 34.4852 21.9662L36.9831 19.4778C39.6259 22.4214 41.2347 26.3045 41.2347 30.5551C41.2347 39.7269 33.7444 47.1889 24.5377 47.1889C15.331 47.1889 7.84034 39.727 7.84034 30.5552C7.84034 27.0115 8.94856 23.6267 11.0452 20.7669C11.3965 20.2878 11.2914 19.6157 10.8105 19.2659C10.3296 18.916 9.65502 19.0205 9.30373 19.4997C6.93569 22.73 5.68385 26.5529 5.68385 30.5552C5.68385 40.9118 14.1416 49.3374 24.5374 49.3374C34.9332 49.3374 43.3909 40.9117 43.3909 30.5552C43.3909 25.7122 41.5414 21.2917 38.5091 17.9574L41.0045 15.4714C44.6742 19.4443 46.9181 24.7435 46.9181 30.5553C46.9184 42.8494 36.8783 52.8514 24.5375 52.8514ZM29.8667 30.5552C29.8667 33.4826 27.476 35.8643 24.5374 35.8643C21.5987 35.8643 19.2079 33.4826 19.2079 30.5552C19.2079 27.6277 21.5987 25.2461 24.5374 25.2461C25.566 25.2461 26.5274 25.5383 27.3427 26.0432L23.9035 29.4694C23.4824 29.8889 23.4824 30.5691 23.9035 30.9885C24.114 31.1983 24.39 31.3032 24.6659 31.3032C24.9418 31.3032 25.2177 31.1982 25.4283 30.9885L28.9085 27.5216C29.5121 28.3822 29.8667 29.4281 29.8667 30.5552ZM48.4608 12.2805C48.075 12.6648 47.5641 12.8899 47.0199 12.916L43.6246 12.8613L45.6961 10.7977C45.7191 10.7747 45.7407 10.7508 45.7613 10.7264L47.5313 8.96018L51.497 9.2558L48.4608 12.2805Z" fill="white"/>
</svg>
